<svg xmlns="http://www.w3.org/2000/svg" width="203.6" height="64.739" viewBox="0 0 203.6 64.739">
  <g id="Group_49" data-name="Group 49" transform="translate(-2119 -2030)">
    <g id="_Groupe_" data-name="&lt;Groupe&gt;" transform="translate(2119 2030.01)">
      <path id="Path_57" data-name="Path 57" d="M-139.74-148.4v.56a6.689,6.689,0,0,1-.87-.2l.14-.07c.23-.09.46-.2.7-.28Z" transform="translate(320.57 187.33)" fill="#fff"/>
      <path id="Path_58" data-name="Path 58" d="M-140.53-154.5a36.88,36.88,0,0,0-4.49,4.59,30.257,30.257,0,0,0-2,2.72l-.16-.07a4.281,4.281,0,0,1-.43-.22,33.549,33.549,0,0,1,6.11-7Z" transform="translate(320.57 187.33)" fill="#fff"/>
      <path id="Path_59" data-name="Path 59" d="M-147.25-153.75a13.936,13.936,0,0,0-.69,1.53,17.28,17.28,0,0,0-.87,3.66,2.25,2.25,0,0,1-.15-.24,16.39,16.39,0,0,1,.47-2.95l.29-1.24h0a10.363,10.363,0,0,0-.71.78,3.5,3.5,0,0,1,1.27-1.28Z" transform="translate(320.57 187.33)" fill="#fff"/>
      <path id="Path_60" data-name="Path 60" d="M-117.27-187.22l.3,6.94-.34.06a3.569,3.569,0,0,1-.5,0,4.448,4.448,0,0,1-.81-.09l-.12-4-1.08,2.65h-.97l-.32-.06-.94-2.62-.13,4a3.71,3.71,0,0,1-.78.08,4.139,4.139,0,0,1-.79-.09l.32-6.94.44-.05h.86l.42.06,1.36,3.62,1.45-3.61.39-.05h.81Z" transform="translate(320.57 187.33)" fill="#fff"/>
      <path id="Path_61" data-name="Path 61" d="M-124.39-186.88a3.475,3.475,0,0,1,0,.35,4.66,4.66,0,0,1-.08.77h-1.62v5.44a5.24,5.24,0,0,1-.86.08,5.16,5.16,0,0,1-.86-.09v-5.44h-1.62a3.76,3.76,0,0,1-.08-.77,3.781,3.781,0,0,1,.09-.75h5C-124.42-187.14-124.4-187-124.39-186.88Z" transform="translate(320.57 187.33)" fill="#fff"/>
      <path id="Path_62" data-name="Path 62" d="M-129.61-159.89a.26.26,0,0,1-.11.05c-1.14.29-2.27.6-3.37,1a23.94,23.94,0,0,0-7.2,4.13l-.24.2h-1l.82-.69a23.52,23.52,0,0,1,6.45-3.8,11.5,11.5,0,0,1,3.21-.84C-130.56-159.87-130.08-159.87-129.61-159.89Z" transform="translate(320.57 187.33)" fill="#fff"/>
      <path id="Path_63" data-name="Path 63" d="M-129.06-157.57l-.08,17.33q-2.61.74-6.32,1.48a39.159,39.159,0,0,1-7.83.72,30.75,30.75,0,0,1-6.55-.68,17.487,17.487,0,0,1-1.7-.47,33.26,33.26,0,0,1,3.88-8.22v-.07a4.276,4.276,0,0,0,.43.22l.16.07a27.312,27.312,0,0,0-1.74,3.05l-.15.34,2,.63-.63-.57h3.07a.21.21,0,0,0-.1-.07l-1.12-.46a4.9,4.9,0,0,1-1.31-.82.42.42,0,0,1-.07-.12.39.39,0,0,1,.12,0h.72a12.56,12.56,0,0,0,2.46-.22,14.84,14.84,0,0,0,3.4-1.09l.64-.31,1.1-.58a1.091,1.091,0,0,0,.17-.13h0c-.42-.07-.85-.11-1.27-.19v-.56a11.73,11.73,0,0,0,3.46-1.95c.66-.52,1.35-1,2-1.49l1.55-1.17c.07,0,.12-.11.2-.18h-.15a22,22,0,0,1-4.27.46,7.33,7.33,0,0,1-2.68-.44h-.1v-.05h2.33a13.09,13.09,0,0,0,2.6-.19,8.65,8.65,0,0,0,3.37-1.42,9.44,9.44,0,0,0,1.7-1.66,3.61,3.61,0,0,0,.62-.94Z" transform="translate(320.57 187.33)" fill="#fff"/>
      <path id="Path_64" data-name="Path 64" d="M-148.81-148.56v.33c0,.11-.07.45-.1.68v-1.25A2.248,2.248,0,0,0-148.81-148.56Z" transform="translate(320.57 187.33)" fill="#fff"/>
      <path id="Path_65" data-name="Path 65" d="M-129-160.79a2.48,2.48,0,0,0-.79-.88,5.66,5.66,0,0,0-1.29-.62,5.32,5.32,0,0,0-2.81-.33,3,3,0,0,0-1.88,1l-.53.62-.66.79h0l1.39-2.65c-.3.1-.58.23-.86.35a10.87,10.87,0,0,0-2.18,1.16,5.529,5.529,0,0,0-1.15,1,10,10,0,0,0-1.06,1.84c-.52,1.09-1,2.19-1.53,3.29l-.07.14a.28.28,0,0,1,0-.15c.06-.33.11-.65.18-1a18.569,18.569,0,0,1,.71-2.36c.06-.16.1-.33.15-.5h-.14a8.691,8.691,0,0,0-1.57.79,11.74,11.74,0,0,0-4.06,4.47l-.43.24a3.5,3.5,0,0,0-1.27,1.28,6.53,6.53,0,0,0-1.58,5.21l-.69-.31.38,1.42-1.17-.15h0l.13.2a14,14,0,0,1,1.17,1.79.19.19,0,0,1,0,.2c-.55,1.2-1.07,2.41-1.52,3.65-.08.22-.15.45-.22.67a12.859,12.859,0,0,1-2.5-1.32,10,10,0,0,1-3.31-3.83,12.72,12.72,0,0,1-1.17-5.81A10,10,0,0,1-158-156a10.87,10.87,0,0,1,3.72-3.48,15.79,15.79,0,0,1,5-1.8,29,29,0,0,1,5.36-.49h4.19a3.7,3.7,0,0,0-.68-2.06,4.13,4.13,0,0,0-1.57-1.28,7.74,7.74,0,0,0-2.13-.63,16.666,16.666,0,0,0-2.4-.18,23.081,23.081,0,0,0-3.85.36,27.68,27.68,0,0,0-4.54,1.18q-.61-1.17-1.05-2.13a10.3,10.3,0,0,1-.68-2,14.556,14.556,0,0,1-.33-2.06,24.4,24.4,0,0,1-.09-2.44,43.8,43.8,0,0,1,6.57-1.62,35.652,35.652,0,0,1,5.87-.52,22.61,22.61,0,0,1,6.45.89,12.86,12.86,0,0,1,4.9,2.67,11.7,11.7,0,0,1,3.1,4.58,17.65,17.65,0,0,1,1.16,6.22Z" transform="translate(320.57 187.33)" fill="#fff"/>
      <path id="Path_66" data-name="Path 66" d="M-164.28-165.36a14.78,14.78,0,0,0-3-5.23,14.12,14.12,0,0,0-4.82-3.42,16.14,16.14,0,0,0-6.48-1.27,18.68,18.68,0,0,0-7.7,1.44,15.57,15.57,0,0,0-5.51,4,16.87,16.87,0,0,0-3.32,6,24,24,0,0,0-1.13,7.34,24.21,24.21,0,0,0,1,7.35,15.29,15.29,0,0,0,3.27,5.82,15,15,0,0,0,5.75,3.84,23.441,23.441,0,0,0,8.47,1.41,35.68,35.68,0,0,0,12.51-2.21,20.211,20.211,0,0,0-.76-5.15,22.09,22.09,0,0,0-1.66-4.27,26.769,26.769,0,0,1-4.88,1.42,23.509,23.509,0,0,1-4.46.46,9.36,9.36,0,0,1-5-1.19,6.35,6.35,0,0,1-2.63-4l20.87.1q.14-1,.32-2.44a29,29,0,0,0,.19-3.33,20,20,0,0,0-1.03-6.67Zm-20.45,4.4a6.16,6.16,0,0,1,1.87-4.25,5.56,5.56,0,0,1,3.78-1.36,4.76,4.76,0,0,1,3.87,1.63,6.71,6.71,0,0,1,1.46,4Z" transform="translate(320.57 187.33)" fill="#fff"/>
      <path id="Path_67" data-name="Path 67" d="M-201.89-159.67l-.1,20.53a27.608,27.608,0,0,1-3.23.43q-1.44.1-2.54.09t-2.61-.12a27.567,27.567,0,0,1-3.22-.46l.09-19.29q0-3.64-1.21-5.22a4.84,4.84,0,0,0-4-1.6,8.689,8.689,0,0,0-1.89.2,9.557,9.557,0,0,0-1.27.34,22.16,22.16,0,0,1,.59,5.49l-.1,20a27.649,27.649,0,0,1-3.23.43q-1.44.1-2.54.09t-2.61-.12a27.561,27.561,0,0,1-3.22-.46l.09-19.29q0-3.64-1.14-5.22t-4-1.6a10.28,10.28,0,0,0-1.61.13,3.4,3.4,0,0,0-1.07.27l-.12,25.68a27.649,27.649,0,0,1-3.23.43q-1.44.1-2.54.09t-2.61-.12a27.564,27.564,0,0,1-3.22-.46l.16-33.71q2.41-.81,5.78-1.58a38.188,38.188,0,0,1,8.52-.75,34.729,34.729,0,0,1,5.56.47,14.551,14.551,0,0,1,5.07,1.84,24.471,24.471,0,0,1,4.2-1.56,19.76,19.76,0,0,1,5.43-.66,31.13,31.13,0,0,1,5.52.54,12.57,12.57,0,0,1,5.14,2.19,12.06,12.06,0,0,1,3.75,4.76A19.13,19.13,0,0,1-201.89-159.67Z" transform="translate(320.57 187.33)" fill="#fff"/>
      <path id="Path_68" data-name="Path 68" d="M-260-174.85l-.16,33.85q-1.17.41-2.78.81t-3.44.77q-1.82.37-3.74.57a35.519,35.519,0,0,1-3.78.19,40.163,40.163,0,0,1-6.73-.58,13.94,13.94,0,0,1-5.65-2.26,11.47,11.47,0,0,1-3.86-4.89,21.05,21.05,0,0,1-1.4-8.55l.1-20a23.338,23.338,0,0,1,3-.47q1.48-.13,2.85-.12t2.81.15a21.141,21.141,0,0,1,2.95.5l-.09,19.09q0,4.12,1.35,5.64a5.38,5.38,0,0,0,4.18,1.53,17.282,17.282,0,0,0,1.78-.06,7.277,7.277,0,0,0,.89-.13l.13-26a23.4,23.4,0,0,1,3-.47q1.48-.13,2.85-.12t2.81.15A21.107,21.107,0,0,1-260-174.85Z" transform="translate(320.57 187.33)" fill="#fff"/>
      <path id="Path_69" data-name="Path 69" d="M-295.51-146.67q.1,1.17.09,2.27t-.11,2.3a16.525,16.525,0,0,1-.46,2.57l-24.58-.12.24-35.5a23.4,23.4,0,0,1,3-.47q1.48-.13,2.85-.12t2.81.15a21.15,21.15,0,0,1,3,.5l-.19,25.82,13,.06a16.625,16.625,0,0,1,.35,2.54Z" transform="translate(320.57 187.33)" fill="#fff"/>
    </g>
    <path id="Path_116" data-name="Path 116" d="M-149.12-127.78a4.62,4.62,0,0,1-1.3,3.615A4.62,4.62,0,0,1-154-122.78h-3.83v-9.76H-154a4.61,4.61,0,0,1,3.492,1.3,4.61,4.61,0,0,1,1.388,3.458Zm-6.88,3.19h2a2.9,2.9,0,0,0,2.269-.9,2.9,2.9,0,0,0,.781-2.312,2.9,2.9,0,0,0-.865-2.171A2.9,2.9,0,0,0-154-130.8h-2Z" transform="translate(2435.57 2217.34)" fill="#fff"/>
    <path id="Path_117" data-name="Path 117" d="M-140.93-125.65h-5.37a1.83,1.83,0,0,0,2,1.46,2.84,2.84,0,0,0,1.84-.64l1.09,1.07a4.22,4.22,0,0,1-3,1.11,3.46,3.46,0,0,1-2.738-.962,3.46,3.46,0,0,1-1.042-2.708,3.44,3.44,0,0,1,1.02-2.616,3.44,3.44,0,0,1,2.63-.984C-142.1-129.9-140.66-128.48-140.93-125.65Zm-5.34-1.41h3.71a1.57,1.57,0,0,0-.611-1.04,1.57,1.57,0,0,0-1.169-.3,1.85,1.85,0,0,0-1.92,1.34Zm3.87-5.73h-2l-1,1.9v.08h1.51l1.53-1.91Z" transform="translate(2435.57 2217.34)" fill="#fff"/>
    <path id="Path_118" data-name="Path 118" d="M-133.72-123.7a3.54,3.54,0,0,1-2.65,1.09,3.41,3.41,0,0,1-2.656-.986,3.41,3.41,0,0,1-.994-2.654,3.41,3.41,0,0,1,.994-2.654,3.41,3.41,0,0,1,2.656-.986,3.26,3.26,0,0,1,2.48,1l-1.07,1.13a2.09,2.09,0,0,0-1.38-.54,1.93,1.93,0,0,0-1.436.564,1.93,1.93,0,0,0-.564,1.436,1.87,1.87,0,0,0,.543,1.457,1.87,1.87,0,0,0,1.457.543,2.07,2.07,0,0,0,1.51-.57Z" transform="translate(2435.57 2217.34)" fill="#fff"/>
    <path id="Path_119" data-name="Path 119" d="M-126-126.25a3.43,3.43,0,0,1-1,2.579,3.43,3.43,0,0,1-2.579,1,3.42,3.42,0,0,1-2.576-1,3.42,3.42,0,0,1-.994-2.578,3.44,3.44,0,0,1,.994-2.564,3.44,3.44,0,0,1,2.556-1.016,3.47,3.47,0,0,1,2.579,1.007A3.47,3.47,0,0,1-126-126.25Zm-5.45,0a1.86,1.86,0,0,0,.5,1.41,1.86,1.86,0,0,0,1.374.59,1.86,1.86,0,0,0,1.374-.59,1.86,1.86,0,0,0,.5-1.41,1.94,1.94,0,0,0-1.87-2,1.89,1.89,0,0,0-1.364.6,1.89,1.89,0,0,0-.506,1.4Z" transform="translate(2435.57 2217.34)" fill="#fff"/>
  </g>
</svg>
