<svg xmlns="http://www.w3.org/2000/svg" width="202.78" height="64.438" viewBox="0 0 202.78 64.438">
  <g id="Group_54" data-name="Group 54" transform="translate(-2118.18 -2447.47)">
    <g id="_Groupe_" data-name="&lt;Groupe&gt;" transform="translate(1420 1989.01)">
      <path id="Path_74" data-name="Path 74" d="M557.72,309.91v.56a6.658,6.658,0,0,1-.86-.2l.14-.07c.23-.09.46-.2.7-.28Z" transform="translate(320.57 187.33)" fill="#fff"/>
      <path id="Path_75" data-name="Path 75" d="M556.93,303.83a36.728,36.728,0,0,0-4.47,4.57,30.149,30.149,0,0,0-2,2.71l-.16-.07a4.271,4.271,0,0,1-.42-.22,33.411,33.411,0,0,1,6.09-7Z" transform="translate(320.57 187.33)" fill="#fff"/>
      <path id="Path_76" data-name="Path 76" d="M550.24,304.58a13.874,13.874,0,0,0-.68,1.52,17.207,17.207,0,0,0-.87,3.65,2.248,2.248,0,0,1-.15-.24,16.328,16.328,0,0,1,.47-2.94l.29-1.23h0a10.335,10.335,0,0,0-.71.78,3.48,3.48,0,0,1,1.27-1.28Z" transform="translate(320.57 187.33)" fill="#fff"/>
      <path id="Path_77" data-name="Path 77" d="M580.09,271.24l.3,6.91-.34.06a3.561,3.561,0,0,1-.5,0,4.44,4.44,0,0,1-.8-.09l-.12-4-1.08,2.64h-.97l-.32-.05-.94-2.61-.13,4a3.691,3.691,0,0,1-.77.08,4.119,4.119,0,0,1-.78-.09l.31-6.91.44-.05h.86l.42.06,1.36,3.61,1.44-3.59.39-.05h.81Z" transform="translate(320.57 187.33)" fill="#fff"/>
      <path id="Path_78" data-name="Path 78" d="M573,271.58a3.451,3.451,0,0,1,0,.35,4.639,4.639,0,0,1-.08.76H571.3v5.42a5.222,5.222,0,0,1-.85.08,5.14,5.14,0,0,1-.86-.09v-5.42H568a3.331,3.331,0,0,1,0-1.51h4.95A1.24,1.24,0,0,1,573,271.58Z" transform="translate(320.57 187.33)" fill="#fff"/>
      <path id="Path_79" data-name="Path 79" d="M567.81,298.46a.259.259,0,0,1-.11.05c-1.13.29-2.26.6-3.36,1a23.85,23.85,0,0,0-7.17,4.11l-.24.2h-1l.82-.69a23.429,23.429,0,0,1,6.42-3.78,11.45,11.45,0,0,1,3.19-.83C566.86,298.48,567.34,298.48,567.81,298.46Z" transform="translate(320.57 187.33)" fill="#fff"/>
      <path id="Path_80" data-name="Path 80" d="M568.36,300.77,568.28,318q-2.6.74-6.3,1.47a39,39,0,0,1-7.8.71,30.63,30.63,0,0,1-6.53-.68,17.416,17.416,0,0,1-1.69-.46,33.128,33.128,0,0,1,3.86-8.19v-.07a4.259,4.259,0,0,0,.42.22l.16.07a27.207,27.207,0,0,0-1.74,3l-.15.34,2,.63-.63-.57H553a.21.21,0,0,0-.1-.07l-1.1-.4a4.881,4.881,0,0,1-1.31-.81.419.419,0,0,1-.07-.12.39.39,0,0,1,.12,0h.71a12.508,12.508,0,0,0,2.45-.22,14.78,14.78,0,0,0,3.39-1.09l.64-.31,1.09-.57a1.077,1.077,0,0,0,.17-.13h0c-.42-.07-.84-.11-1.27-.19V310a11.68,11.68,0,0,0,3.44-1.94c.65-.52,1.35-1,2-1.48l1.54-1.17c.07,0,.12-.11.19-.18h-.15a21.929,21.929,0,0,1-4.25.46,7.3,7.3,0,0,1-2.67-.43h-.1v-.05h2.32a13,13,0,0,0,2.59-.19,8.611,8.611,0,0,0,3.36-1.42,9.4,9.4,0,0,0,1.69-1.65,3.589,3.589,0,0,0,.62-.93Z" transform="translate(320.57 187.33)" fill="#fff"/>
      <path id="Path_81" data-name="Path 81" d="M548.69,309.75v.33c0,.11-.07.45-.1.68v-1.25a2.244,2.244,0,0,0,.1.24Z" transform="translate(320.57 187.33)" fill="#fff"/>
      <path id="Path_82" data-name="Path 82" d="M568.37,297.57a2.47,2.47,0,0,0-.79-.87,5.64,5.64,0,0,0-1.28-.62,5.3,5.3,0,0,0-2.8-.33,3,3,0,0,0-1.88,1l-.53.62-.66.79h0l1.39-2.64c-.3.1-.58.22-.86.34a10.818,10.818,0,0,0-2.17,1.16,5.507,5.507,0,0,0-1.14,1,10,10,0,0,0-1.06,1.83c-.51,1.09-1,2.18-1.52,3.28l-.07.14a.281.281,0,0,1,0-.15c.06-.33.11-.65.18-1a18.479,18.479,0,0,1,.71-2.35c.06-.16.1-.33.15-.5h-.14a8.66,8.66,0,0,0-1.56.79,11.689,11.689,0,0,0-4,4.45l-.43.24a3.48,3.48,0,0,0-1.27,1.28,6.51,6.51,0,0,0-1.57,5.19l-.69-.31.38,1.41-1.16-.15h0l.13.2a13.993,13.993,0,0,1,1.17,1.78.19.19,0,0,1,0,.2c-.55,1.19-1.07,2.4-1.51,3.64-.08.22-.15.44-.22.67a12.809,12.809,0,0,1-2.49-1.32,9.92,9.92,0,0,1-3.3-3.81,12.671,12.671,0,0,1-1.17-5.78,9.91,9.91,0,0,1,1.46-5.53,10.831,10.831,0,0,1,3.71-3.47,15.731,15.731,0,0,1,5-1.79,28.86,28.86,0,0,1,5.34-.49h4.17a3.69,3.69,0,0,0-.67-2.06,4.12,4.12,0,0,0-1.57-1.27,7.711,7.711,0,0,0-2.12-.63,16.6,16.6,0,0,0-2.39-.18,23,23,0,0,0-3.83.36,27.572,27.572,0,0,0-4.52,1.17,23.328,23.328,0,0,1-1-2.13,10.261,10.261,0,0,1-.67-2,14.5,14.5,0,0,1-.33-2.05,24.281,24.281,0,0,1-.09-2.43,43.627,43.627,0,0,1,6.54-1.61,35.511,35.511,0,0,1,5.85-.52,22.52,22.52,0,0,1,6.42.89,12.81,12.81,0,0,1,4.88,2.66,11.65,11.65,0,0,1,3.09,4.56,17.58,17.58,0,0,1,.89,6.34Z" transform="translate(320.57 187.33)" fill="#fff"/>
      <path id="Path_83" data-name="Path 83" d="M533.28,293a14.72,14.72,0,0,0-3-5.21,14.069,14.069,0,0,0-4.8-3.41,16.081,16.081,0,0,0-6.46-1.26,18.6,18.6,0,0,0-7.67,1.43,15.51,15.51,0,0,0-5.49,4,16.8,16.8,0,0,0-3.31,5.93,23.859,23.859,0,0,0-1.13,7.31,24.119,24.119,0,0,0,1,7.32,15.229,15.229,0,0,0,3.26,5.8,15,15,0,0,0,5.73,3.82,23.35,23.35,0,0,0,8.44,1.41,35.54,35.54,0,0,0,12.46-2.2,20.128,20.128,0,0,0-.76-5.13,22,22,0,0,0-1.66-4.25A26.663,26.663,0,0,1,525,310a23.41,23.41,0,0,1-4.45.46,9.32,9.32,0,0,1-5-1.19,6.32,6.32,0,0,1-2.61-4l20.79.1q.14-1,.32-2.43a28.9,28.9,0,0,0,.19-3.32,20,20,0,0,0-.96-6.62Zm-20.37,4.38a6.14,6.14,0,0,1,1.87-4.23,5.54,5.54,0,0,1,3.77-1.35,4.74,4.74,0,0,1,3.86,1.63,6.69,6.69,0,0,1,1.45,4Z" transform="translate(320.57 187.33)" fill="#fff"/>
      <path id="Path_84" data-name="Path 84" d="M495.81,298.68l-.1,20.45a27.51,27.51,0,0,1-3.22.43q-1.44.1-2.53.09t-2.6-.12a27.46,27.46,0,0,1-3.21-.46l.09-19.22q0-3.62-1.21-5.2a4.82,4.82,0,0,0-4-1.59,8.65,8.65,0,0,0-1.88.2,9.52,9.52,0,0,0-1.27.34,22.071,22.071,0,0,1,.59,5.47l-.1,20a27.542,27.542,0,0,1-3.22.43q-1.44.1-2.53.09t-2.6-.12a27.454,27.454,0,0,1-3.21-.46l.09-19.22q0-3.62-1.14-5.2t-4-1.59a10.236,10.236,0,0,0-1.61.13,3.39,3.39,0,0,0-1.06.27L457,318.94a27.537,27.537,0,0,1-3.22.43q-1.44.1-2.53.09t-2.6-.12a27.46,27.46,0,0,1-3.21-.46l.16-33.58q2.4-.81,5.75-1.58a38,38,0,0,1,8.48-.75,34.591,34.591,0,0,1,5.54.47,14.49,14.49,0,0,1,5.05,1.84,24.377,24.377,0,0,1,4.18-1.55,19.679,19.679,0,0,1,5.41-.66,31,31,0,0,1,5.5.54,12.52,12.52,0,0,1,5.12,2.18,12,12,0,0,1,3.74,4.74A19.051,19.051,0,0,1,495.81,298.68Z" transform="translate(320.57 187.33)" fill="#fff"/>
      <path id="Path_85" data-name="Path 85" d="M438,283.56l-.16,33.71q-1.17.4-2.77.81t-3.42.77a36.624,36.624,0,0,1-3.73.56,35.39,35.39,0,0,1-3.76.19,40,40,0,0,1-6.7-.58,13.89,13.89,0,0,1-5.63-2.25,11.42,11.42,0,0,1-3.84-4.87,21,21,0,0,1-1.39-8.52l.1-20a23.251,23.251,0,0,1,3-.46q1.47-.13,2.84-.12t2.8.15a21.053,21.053,0,0,1,2.94.49l-.09,19q0,4.1,1.34,5.61a5.36,5.36,0,0,0,4.16,1.52,17.222,17.222,0,0,0,1.78-.06,7.246,7.246,0,0,0,.89-.13l.13-25.92a23.3,23.3,0,0,1,3-.46q1.47-.13,2.84-.12t2.8.15a21,21,0,0,1,2.87.53Z" transform="translate(320.57 187.33)" fill="#fff"/>
      <path id="Path_86" data-name="Path 86" d="M402.57,311.63q.1,1.16.09,2.26t-.11,2.29a16.454,16.454,0,0,1-.46,2.56l-24.48-.12.24-35.35a23.3,23.3,0,0,1,3-.46q1.47-.13,2.84-.12t2.8.15a21.072,21.072,0,0,1,2.94.49L389.21,309l12.93.06a16.567,16.567,0,0,1,.43,2.57Z" transform="translate(320.57 187.33)" fill="#fff"/>
    </g>
    <path id="Path_146" data-name="Path 146" d="M539.11,335.38h-7.27v-9.72h7.27v1.78h-5.45v2.23h5.26v1.71h-5.26v2.19h5.45Z" transform="translate(1740.57 2176.34)" fill="#fff"/>
    <path id="Path_147" data-name="Path 147" d="M547.5,328.53l-2.91,6.88h-1.83l-2.93-6.88h1.85l.94,2.26,1.05,2.89,1-2.86.94-2.29Z" transform="translate(1740.57 2176.34)" fill="#fff"/>
    <path id="Path_148" data-name="Path 148" d="M549.76,332.56a1.82,1.82,0,0,0,2,1.46,2.82,2.82,0,0,0,1.83-.64l1.08,1.07a4.2,4.2,0,0,1-2.94,1.11,3.62,3.62,0,1,1-.12-7.23c2.29,0,3.72,1.42,3.46,4.23Zm3.72-1.4a1.57,1.57,0,0,0-1.78-1.33,1.84,1.84,0,0,0-1.92,1.33Z" transform="translate(1740.57 2176.34)" fill="#fff"/>
    <path id="Path_149" data-name="Path 149" d="M561.45,335.38V331.8a1.63,1.63,0,0,0-1.65-1.83,1.8,1.8,0,0,0-1.75,1.92v3.5h-1.68v-6.86h1.51l.11.93a3.09,3.09,0,0,1,2.25-1c1.61,0,2.9,1.21,2.9,3.36v3.59Z" transform="translate(1740.57 2176.34)" fill="#fff"/>
    <path id="Path_150" data-name="Path 150" d="M566.69,326.61v1.94h1.89V330h-1.9v3a.85.85,0,0,0,.89,1,1.93,1.93,0,0,0,.82-.21l.47,1.44a3.779,3.779,0,0,1-1.4.29A2.21,2.21,0,0,1,565,333v-3h-1.28v-1.46H565v-1.76Z" transform="translate(1740.57 2176.34)" fill="#fff"/>
  </g>
</svg>
