<svg xmlns="http://www.w3.org/2000/svg" width="816.88" height="259.122" viewBox="0 0 816.88 259.122">
  <g id="logo_lumea" data-name="logo lumea" transform="translate(-0.01 259.08) rotate(-90)">
    <g id="_Groupe_" data-name="&lt;Groupe&gt;">
      <path id="Path_34" data-name="Path 34" d="M251,730.82h-2.24a26.816,26.816,0,0,1,.82-3.48c.13.28.21.42.27.56.38.93.79,1.85,1.12,2.8Z" transform="translate(-148.1 -5.3)" fill="#24397a"/>
      <path id="Path_35" data-name="Path 35" d="M275.5,727.66a148,148,0,0,0-18.43-18,121.422,121.422,0,0,0-10.92-8.11q.12-.315.27-.63a17.186,17.186,0,0,1,.89-1.71,134.6,134.6,0,0,1,28.21,24.53Z" transform="translate(-148.1 -5.3)" fill="#24397a"/>
      <path id="Path_36" data-name="Path 36" d="M272.48,700.7a55.92,55.92,0,0,0-6.14-2.75,69.338,69.338,0,0,0-14.69-3.49,9,9,0,0,1,1-.6,65.763,65.763,0,0,1,11.83,1.89l5,1.15.06-.18a41.584,41.584,0,0,0-3.14-2.86,14,14,0,0,1,5.16,5.11C271.86,699.52,272.18,700.1,272.48,700.7Z" transform="translate(-148.1 -5.3)" fill="#24397a"/>
      <path id="Path_37" data-name="Path 37" d="M406.79,821l-27.85,1.19c-.08-.42-.15-.88-.23-1.38a14.325,14.325,0,0,1-.11-2,17.867,17.867,0,0,1,.37-3.24l16.15-.47-10.62-4.34c-.08-.47-.14-.94-.19-1.4a11.143,11.143,0,0,1-.07-1.29,7.191,7.191,0,0,1,.07-1.21,9.436,9.436,0,0,1,.22-1.28L395,801.76l-16-.51a14.88,14.88,0,0,1-.33-3.12,16.607,16.607,0,0,1,.37-3.16l27.84,1.26c.08.55.14,1.14.21,1.78a17.591,17.591,0,0,1,.09,1.78,16.1,16.1,0,0,1-.11,1.69c-.07.61-.14,1.17-.22,1.7l-14.53,5.46,14.48,5.81c.08.52.14,1,.21,1.58a12.938,12.938,0,0,1,.09,1.58,14.907,14.907,0,0,1-.11,1.68C406.95,819.86,406.87,820.42,406.79,821Z" transform="translate(-148.1 -5.3)" fill="#24397a"/>
      <path id="Path_38" data-name="Path 38" d="M405.41,792.41a13.982,13.982,0,0,1-1.41.07,18.7,18.7,0,0,1-3.08-.32v-6.52l-21.84-.11a21,21,0,0,1-.33-3.43,20.7,20.7,0,0,1,.37-3.47l21.84.11v-6.52a13.4,13.4,0,0,1,6.09,0l-.1,19.93A9.35,9.35,0,0,1,405.41,792.41Z" transform="translate(-148.1 -5.3)" fill="#24397a"/>
      <path id="Path_39" data-name="Path 39" d="M297.11,771.49a1,1,0,0,1-.21-.44c-1.17-4.56-2.41-9.1-4-13.53a96.06,96.06,0,0,0-16.57-28.89l-.82-1V723.7q1.41,1.62,2.76,3.29a94.38,94.38,0,0,1,15.24,25.88,46.132,46.132,0,0,1,3.35,12.86C297,767.67,297,769.58,297.11,771.49Z" transform="translate(-148.1 -5.3)" fill="#24397a"/>
      <path id="Path_40" data-name="Path 40" d="M287.81,773.69l-69.55-.34q-3-10.48-5.94-25.37a157.12,157.12,0,0,1-2.88-31.42,123.379,123.379,0,0,1,2.74-26.3,70.158,70.158,0,0,1,1.87-6.81A133.452,133.452,0,0,1,247,699l.27.18a17.179,17.179,0,0,0-.89,1.71q-.15.315-.27.63a109.549,109.549,0,0,0-12.26-7c-.43-.21-.88-.39-1.35-.61-.86,2.73-1.7,5.4-2.54,8.1l2.29-2.54.12.07-.06,12.31a.83.83,0,0,0,.28-.4c.62-1.5,1.23-3,1.86-4.5a19.66,19.66,0,0,1,3.28-5.27,1.7,1.7,0,0,1,.48-.28,1.56,1.56,0,0,1,.18.48c0,1,.08,1.92.07,2.88a50.38,50.38,0,0,0,.89,9.88,59.541,59.541,0,0,0,4.38,13.65c.4.87.82,1.72,1.25,2.57.75,1.47,1.55,2.93,2.31,4.41a4.371,4.371,0,0,0,.54.69h.15c.27-1.69.46-3.4.75-5.11H251a47,47,0,0,0,7.81,13.86c2.09,2.64,4,5.43,6,8.13,1.54,2.09,3.13,4.16,4.7,6.22a9.914,9.914,0,0,0,.72.78,1.238,1.238,0,0,0,0-.23.886.886,0,0,0-.06-.39,88.342,88.342,0,0,1-1.85-17.12,29.421,29.421,0,0,1,1.75-10.76,4.452,4.452,0,0,1,.2-.41h.21a1.691,1.691,0,0,1,.08.51v8.83a52.509,52.509,0,0,0,.75,10.43,34.69,34.69,0,0,0,5.71,13.54,37.889,37.889,0,0,0,6.65,6.83,14.478,14.478,0,0,0,3.75,2.5Z" transform="translate(-148.1 -5.3)" fill="#24397a"/>
      <path id="Path_41" data-name="Path 41" d="M251.66,694.46l-1.32-.2-2.73-.41c1.61,0,3.2-.07,4.79,0h.24a9.012,9.012,0,0,0-.98.61Z" transform="translate(-148.1 -5.3)" fill="#24397a"/>
      <path id="Path_42" data-name="Path 42" d="M300.72,773.74a9.939,9.939,0,0,0,3.52-3.18,22.728,22.728,0,0,0,2.49-5.16A21.35,21.35,0,0,0,308,754.12a12.09,12.09,0,0,0-4-7.55c-.83-.7-1.65-1.42-2.49-2.12l-3.17-2.65.1-.15,10.64,5.58c-.41-1.2-.9-2.33-1.39-3.46A43.6,43.6,0,0,0,303,735a22.188,22.188,0,0,0-4.17-4.61,40.218,40.218,0,0,0-7.37-4.25c-4.39-2.07-8.8-4.09-13.21-6.12l-.57-.29a1.12,1.12,0,0,1,.62-.05c1.31.23,2.63.45,3.93.72a74.478,74.478,0,0,1,9.46,2.84c.65.23,1.32.41,2,.62a.769.769,0,0,0,0-.22,2.331,2.331,0,0,0-.11-.38,34.876,34.876,0,0,0-3.17-6.3,47.09,47.09,0,0,0-17.94-16.29,16.525,16.525,0,0,0-1-1.73,14,14,0,0,0-5.16-5.11c-5.88-4.83-12.64-7.41-20.9-6.33l1.24-2.78L241,686.28l.62-4.68-.14-.07c-.27.18-.55.34-.8.53a56.3,56.3,0,0,1-7.17,4.7.77.77,0,0,1-.8,0c-4.8-2.22-9.67-4.3-14.65-6.1-.89-.32-1.79-.61-2.69-.89a51.6,51.6,0,0,1,5.3-10A40,40,0,0,1,236,656.5q9.53-4.78,23.3-4.71,13.49.07,22.29,5.89a43.61,43.61,0,0,1,14,14.94,63.36,63.36,0,0,1,7.2,20.15,116.242,116.242,0,0,1,2,21.5l-.08,16.81a14.85,14.85,0,0,0,8.28-2.72,16.58,16.58,0,0,0,5.13-6.31,31,31,0,0,0,2.52-8.53,66.873,66.873,0,0,0,.73-9.64,92.577,92.577,0,0,0-1.44-15.43,111.069,111.069,0,0,0-4.73-18.2q4.69-2.46,8.56-4.23a41.319,41.319,0,0,1,7.86-2.72,58.415,58.415,0,0,1,8.27-1.34q4.27-.39,9.78-.37a175.736,175.736,0,0,1,6.48,26.34,143.045,143.045,0,0,1,2.09,23.57,90.7,90.7,0,0,1-3.57,25.88A51.59,51.59,0,0,1,344,757a46.931,46.931,0,0,1-18.38,12.45Q315,773.57,300.72,773.74Z" transform="translate(-148.1 -5.3)" fill="#24397a"/>
      <path id="Path_43" data-name="Path 43" d="M319.08,632.39a59.31,59.31,0,0,0,21-12.16,56.669,56.669,0,0,0,13.73-19.35,64.76,64.76,0,0,0,5.09-26q.09-17.63-5.77-30.88a62.49,62.49,0,0,0-16-22.12,67.67,67.67,0,0,0-23.91-13.34A96.11,96.11,0,0,0,283.75,504a97.151,97.151,0,0,0-29.5,4.13,61.341,61.341,0,0,0-23.34,13.11q-9.82,8.9-15.4,23.07t-5.67,34a143.15,143.15,0,0,0,8.85,50.18,81.094,81.094,0,0,0,20.68-3.07,88.61,88.61,0,0,0,17.11-6.67,107.39,107.39,0,0,1-5.69-19.59,94.32,94.32,0,0,1-1.84-17.91q.06-12.4,4.78-19.95t16-10.53l-.4,83.75q3.85.57,9.77,1.29a116.422,116.422,0,0,0,13.36.75A80.352,80.352,0,0,0,319.08,632.39Zm-17.65-82q11.57,1.16,17,7.52A22.32,22.32,0,0,1,323.91,573q0,10.19-6.55,15.53a26.929,26.929,0,0,1-16.14,5.85Z" transform="translate(-148.1 -5.3)" fill="#24397a"/>
      <path id="Path_44" data-name="Path 44" d="M296.25,481.45l-82.37-.4a110.781,110.781,0,0,1-1.73-13q-.38-5.78-.37-10.19,0-4.69.47-10.47a110.58,110.58,0,0,1,1.85-12.94l77.41.37q14.6.07,21-4.86t6.41-16.22a34.85,34.85,0,0,0-.79-7.58,38.347,38.347,0,0,0-1.36-5.1,88.921,88.921,0,0,1-22,2.37l-80.44-.39a110.938,110.938,0,0,1-1.73-13q-.38-5.78-.37-10.19,0-4.69.47-10.47a110.58,110.58,0,0,1,1.85-12.94l77.41.37q14.6.07,21-4.58t6.41-15.95a41.255,41.255,0,0,0-.52-6.47,13.661,13.661,0,0,0-1.08-4.28l-103-.5a110.943,110.943,0,0,1-1.73-13q-.38-5.78-.37-10.19,0-4.69.47-10.47a110.581,110.581,0,0,1,1.85-12.94l135.26.65q3.25,9.65,6.36,23.17t3,34.17a139.32,139.32,0,0,1-1.9,22.31,58.369,58.369,0,0,1-7.4,20.35,98.189,98.189,0,0,1,6.25,16.84,79.27,79.27,0,0,1,2.65,21.78,124.893,124.893,0,0,1-2.29,22.3,50.43,50.43,0,0,1-8.78,20.62q-6.65,9.19-19.08,15.06T296.25,481.45Z" transform="translate(-148.1 -5.3)" fill="#24397a"/>
      <path id="Path_45" data-name="Path 45" d="M357.16,248.41l-135.81-.66q-1.63-4.7-3.25-11.17T215,222.79q-1.47-7.3-2.27-15a142.518,142.518,0,0,1-.75-15.16,161.13,161.13,0,0,1,2.33-27,55.94,55.94,0,0,1,9.06-22.68q6.8-9.75,19.64-15.47t34.32-5.62l80.44.39a93.665,93.665,0,0,1,1.87,12q.52,5.93.49,11.44,0,5.23-.6,11.29a84.8,84.8,0,0,1-2,11.84L281,168.43q-16.53-.08-22.62,5.4t-6.14,16.78a69.319,69.319,0,0,0,.24,7.16,29.182,29.182,0,0,0,.53,3.58l104.41.5a93.874,93.874,0,0,1,1.87,12q.52,5.92.49,11.43,0,5.24-.6,11.29A84.683,84.683,0,0,1,357.16,248.41Z" transform="translate(-148.1 -5.3)" fill="#24397a"/>
      <path id="Path_46" data-name="Path 46" d="M244.07,105.86q-4.69.39-9.1.37t-9.22-.45a66.261,66.261,0,0,1-10.32-1.84l.48-98.63,142.42,1a93.875,93.875,0,0,1,1.87,12q.52,5.93.49,11.44,0,5.23-.6,11.29a84.871,84.871,0,0,1-2,11.84L254.53,52l-.25,52.07a66.73,66.73,0,0,1-10.21,1.79Z" transform="translate(-148.1 -5.3)" fill="#24397a"/>
    </g>
    <g id="Group_95" data-name="Group 95" opacity="0.75">
      <path id="Path_47" data-name="Path 47" d="M152.65,135a25.14,25.14,0,0,1-2-10.61c.05-11.14,7.49-18.35,18.56-18.29s19.14,7.9,19.08,19.9a22.75,22.75,0,0,1-1.92,9.29l-5.08-1.55a15.81,15.81,0,0,0,1.76-7.77c0-8.47-6.07-13.07-13.62-13.11-8.37,0-13.56,5.42-13.6,12.75a19.35,19.35,0,0,0,1.75,8.25Z" transform="translate(-148.1 -5.3)" fill="#1d1d1b"/>
      <path id="Path_48" data-name="Path 48" d="M176.17,143c4.26,0,7.93,0,11.29-.25v5.87l-7.1.19v.31c4.85,1.7,7.9,5.76,7.88,10.26a7.429,7.429,0,0,1-.23,1.91H181.8a10.339,10.339,0,0,0,.24-2.29c0-4.73-3.48-8.1-8.41-9a18.27,18.27,0,0,0-3.07-.32l-19.29-.09v-6.63Z" transform="translate(-148.1 -5.3)" fill="#1d1d1b"/>
      <path id="Path_49" data-name="Path 49" d="M168,170.84c-8.9.11-12.59,5.89-12.63,12.6a24.7,24.7,0,0,0,1.82,10.23l-4.72,1.12a30.43,30.43,0,0,1-2.18-12.29c.05-11.36,7.42-18.12,18.34-18.07s19.49,6.66,19.44,17.41C188,193.89,177.63,197,171,197a24.47,24.47,0,0,1-3.07-.24Zm4.62,19.7c4.19.1,10.7-1.7,10.74-9.25,0-6.79-6.09-9.79-10.65-10.35Z" transform="translate(-148.1 -5.3)" fill="#1d1d1b"/>
      <path id="Path_50" data-name="Path 50" d="M150.86,225.66l4.56-.51v-.23a13.85,13.85,0,0,1-5.33-11.32c0-7.47,5.22-11.26,10.45-11.24,8.75,0,13.5,8,13.36,22.26h.75c3,0,8.38-.8,8.42-8.35a18.66,18.66,0,0,0-2.64-9.62l4.34-1.51a23.25,23.25,0,0,1,3.16,12.14c-.05,11.29-7.62,14-14.88,14l-13.54-.07a50.132,50.132,0,0,0-8.68.57Zm18.48-.9c.18-7.32-1-15.64-8.08-15.68-4.26,0-6.3,2.87-6.31,6.3a9.17,9.17,0,0,0,6,9,6.76,6.76,0,0,0,2.09.39Z" transform="translate(-148.1 -5.3)" fill="#1d1d1b"/>
      <path id="Path_51" data-name="Path 51" d="M197.34,250l-10.4-.05v9.61h-5v-9.61l-19.52-.09c-4.49,0-7,1.26-7.06,5a15.36,15.36,0,0,0,.43,3.89l-4.94.28a16.74,16.74,0,0,1-.87-6,9.339,9.339,0,0,1,2.8-7.23c2-1.9,5.17-2.57,9.44-2.55l19.74.1v-5.72h5v5.72h8.68Z" transform="translate(-148.1 -5.3)" fill="#1d1d1b"/>
      <path id="Path_52" data-name="Path 52" d="M197,274.6c-2.24.07-4-1.62-4-4.29a4.111,4.111,0,1,1,4,4.29Zm-46.33-7.7,36.2.17v6.71l-36.2-.17Z" transform="translate(-148.1 -5.3)" fill="#1d1d1b"/>
      <path id="Path_53" data-name="Path 53" d="M186.76,287.52l-20.38,7.15a92,92,0,0,1-9.29,2.93v.23c3,.85,6,1.94,9.26,3.17l20.31,7.27v7L150.5,300.61V294.2l36.26-13.86Z" transform="translate(-148.1 -5.3)" fill="#1d1d1b"/>
      <path id="Path_54" data-name="Path 54" d="M167.29,324.48c-8.9.11-12.59,5.89-12.63,12.6a24.7,24.7,0,0,0,1.82,10.23l-4.72,1.12a30.43,30.43,0,0,1-2.18-12.29c.05-11.36,7.42-18.12,18.34-18.07s19.49,6.66,19.44,17.41c-.06,12-10.47,15.2-17.12,15.17a24.47,24.47,0,0,1-3.07-.24Zm4.62,19.7c4.19.1,10.7-1.7,10.74-9.25,0-6.79-6.09-9.79-10.65-10.35Z" transform="translate(-148.1 -5.3)" fill="#1d1d1b"/>
      <path id="Path_55" data-name="Path 55" d="M156.88,374.15a17.83,17.83,0,0,0-2.66,8.83c0,4.88,2.36,7.18,5.35,7.2,3.14,0,4.87-1.88,6.69-6.83,2.35-6.62,6-9.73,10.3-9.71,5.83,0,10.6,4.86,10.56,12.79a18.69,18.69,0,0,1-2.29,9.06l-4.78-1.7a14.58,14.58,0,0,0,2.13-7.54c0-4-2.21-6.19-4.91-6.2-3,0-4.35,2.19-6.17,7-2.42,6.4-5.58,9.66-11,9.63-6.36,0-10.82-5.09-10.78-13.86a21.4,21.4,0,0,1,2.52-10.36Z" transform="translate(-148.1 -5.3)" fill="#1d1d1b"/>
      <path id="Path_56" data-name="Path 56" d="M168.23,438.72c-13.39-.06-19.18-9.55-19.13-18.47,0-10,7.27-17.66,18.71-17.61,12.12.06,19.18,8.18,19.13,18.4C186.89,431.64,179.3,438.77,168.23,438.72ZM168,409.43c-7.93,0-13.93,4.59-14,11.14,0,6.41,5.85,11.24,14,11.28,6.13,0,13.93-3.06,14-11S174.88,409.46,168,409.43Z" transform="translate(-148.1 -5.3)" fill="#1d1d1b"/>
      <path id="Path_57" data-name="Path 57" d="M202.9,447.34v6.71l-53.1-.26v-6.71Z" transform="translate(-148.1 -5.3)" fill="#1d1d1b"/>
      <path id="Path_58" data-name="Path 58" d="M159.43,496c-3.74,0-7,0-9.87.26v-5.95l5.91-.35v-.15a13.94,13.94,0,0,1-6.67-12.24c0-5.8,3.2-12.72,15.92-12.66l21.17.1v6.71l-20-.1c-6.88,0-11.53,2.08-11.56,8.18a9.7,9.7,0,0,0,5.94,8.88,9.5,9.5,0,0,0,3.36.62l22.21.11v6.71Z" transform="translate(-148.1 -5.3)" fill="#1d1d1b"/>
      <path id="Path_59" data-name="Path 59" d="M196.06,515.4l-10.4-.05v9.61h-5v-9.61l-19.52-.09c-4.49,0-7,1.26-7.06,5a15.31,15.31,0,0,0,.43,3.89l-4.94.28a16.741,16.741,0,0,1-.87-6,9.338,9.338,0,0,1,2.8-7.23c2-1.9,5.17-2.57,9.44-2.55l19.74.1v-5.72h5v5.72h8.68Z" transform="translate(-148.1 -5.3)" fill="#1d1d1b"/>
      <path id="Path_60" data-name="Path 60" d="M195.71,540c-2.24.07-4-1.62-4-4.29a4.111,4.111,0,1,1,4,4.29Zm-46.33-7.7,36.2.17v6.71l-36.2-.17Z" transform="translate(-148.1 -5.3)" fill="#1d1d1b"/>
      <path id="Path_61" data-name="Path 61" d="M167.53,583.67c-13.39-.06-19.18-9.55-19.13-18.47,0-10,7.27-17.66,18.71-17.61,12.12.06,19.18,8.18,19.13,18.4C186.19,576.59,178.6,583.73,167.53,583.67Zm-.23-29.29c-7.93,0-13.93,4.59-14,11.14,0,6.41,5.85,11.24,14,11.28,6.13,0,13.93-3.06,14-11S174.18,554.41,167.3,554.38Z" transform="translate(-148.1 -5.3)" fill="#1d1d1b"/>
      <path id="Path_62" data-name="Path 62" d="M175.5,592.16c3.74,0,6.81,0,9.8-.26v5.95l-6,.35v.16A13.62,13.62,0,0,1,186,610.6c0,5.11-3.06,13-15.47,13l-21.62-.1v-6.71l20.87.1c5.83,0,10.71-2.16,10.74-8.49a9.51,9.51,0,0,0-6.69-9,9.3,9.3,0,0,0-3.06-.47l-21.76-.11v-6.71Z" transform="translate(-148.1 -5.3)" fill="#1d1d1b"/>
      <path id="Path_63" data-name="Path 63" d="M155.62,633.47a17.83,17.83,0,0,0-2.66,8.83c0,4.88,2.36,7.18,5.35,7.2,3.14,0,4.87-1.88,6.69-6.83,2.35-6.62,6-9.73,10.3-9.71,5.83,0,10.6,4.86,10.56,12.79a18.69,18.69,0,0,1-2.29,9.06l-4.78-1.7a14.58,14.58,0,0,0,2.13-7.54c0-4-2.21-6.19-4.91-6.2-3,0-4.35,2.19-6.17,7-2.42,6.4-5.58,9.66-11,9.63-6.36,0-10.82-5.09-10.78-13.86a21.4,21.4,0,0,1,2.52-10.36Z" transform="translate(-148.1 -5.3)" fill="#1d1d1b"/>
    </g>
  </g>
</svg>
