<svg xmlns="http://www.w3.org/2000/svg" width="202.86" height="68.58" viewBox="0 0 202.86 68.58">
  <g id="Group_50" data-name="Group 50" transform="translate(-2119.7 -2125.07)">
    <g id="_Groupe_" data-name="&lt;Groupe&gt;" transform="translate(2085 2046.01)">
      <path id="Path_92" data-name="Path 92" d="M-105.7-69.48v.56a6.66,6.66,0,0,1-.86-.2l.14-.07c.23-.09.46-.2.7-.28Z" transform="translate(320.57 187.33)" fill="#fff"/>
      <path id="Path_93" data-name="Path 93" d="M-106.48-75.56A36.75,36.75,0,0,0-111-71a30.151,30.151,0,0,0-2,2.71l-.16-.07a4.27,4.27,0,0,1-.42-.22,33.42,33.42,0,0,1,6.09-7Z" transform="translate(320.57 187.33)" fill="#fff"/>
      <path id="Path_94" data-name="Path 94" d="M-113.18-74.81a13.877,13.877,0,0,0-.68,1.52,17.221,17.221,0,0,0-.87,3.65,2.25,2.25,0,0,1-.15-.24,16.329,16.329,0,0,1,.47-2.94l.29-1.23h0a10.334,10.334,0,0,0-.71.78,3.48,3.48,0,0,1,1.27-1.28Z" transform="translate(320.57 187.33)" fill="#fff"/>
      <path id="Path_95" data-name="Path 95" d="M-83.31-108.17l.3,6.92-.34.06a3.56,3.56,0,0,1-.5,0,4.439,4.439,0,0,1-.8-.09l-.12-4-1.08,2.64h-.97l-.32-.05-.94-2.61-.13,4a3.69,3.69,0,0,1-.78.08,4.13,4.13,0,0,1-.78-.09l.31-6.91.44-.05h.86l.42.06,1.36,3.61,1.44-3.6.39-.05h.81Z" transform="translate(320.57 187.33)" fill="#fff"/>
      <path id="Path_96" data-name="Path 96" d="M-90.4-107.82a3.471,3.471,0,0,1,0,.35,4.641,4.641,0,0,1-.08.76H-92.1v5.42a5.22,5.22,0,0,1-.85.08,5.141,5.141,0,0,1-.86-.09v-5.42h-1.62a3.74,3.74,0,0,1-.08-.77,3.771,3.771,0,0,1,.09-.75h4.95A2.445,2.445,0,0,1-90.4-107.82Z" transform="translate(320.57 187.33)" fill="#fff"/>
      <path id="Path_97" data-name="Path 97" d="M-95.6-80.93a.26.26,0,0,1-.11.05c-1.13.29-2.26.6-3.36,1a23.85,23.85,0,0,0-7.17,4.11l-.24.2h-1l.82-.69A23.44,23.44,0,0,1-100.21-80,11.46,11.46,0,0,1-97-80.87C-96.55-80.91-96.07-80.91-95.6-80.93Z" transform="translate(320.57 187.33)" fill="#fff"/>
      <path id="Path_98" data-name="Path 98" d="M-95-78.62l-.08,17.27q-2.6.74-6.3,1.47a39,39,0,0,1-7.8.71,30.64,30.64,0,0,1-6.53-.68,17.421,17.421,0,0,1-1.69-.47,33.14,33.14,0,0,1,3.86-8.19v-.07a4.27,4.27,0,0,0,.42.22l.16.07a27.209,27.209,0,0,0-1.74,3l-.15.34,2,.63-.63-.57h3.06a.21.21,0,0,0-.1-.07l-1.12-.46a4.88,4.88,0,0,1-1.31-.81.42.42,0,0,1-.07-.12.39.39,0,0,1,.12,0h.71a12.51,12.51,0,0,0,2.45-.22,14.789,14.789,0,0,0,3.39-1.09l.64-.31,1.09-.57a1.08,1.08,0,0,0,.17-.13h0c-.42-.07-.84-.11-1.27-.19v-.56a11.68,11.68,0,0,0,3.44-1.94c.65-.52,1.35-1,2-1.48l1.55-1.17c.07,0,.12-.11.19-.18h-.15a21.939,21.939,0,0,1-4.25.46,7.31,7.31,0,0,1-2.67-.43h-.1v-.05h2.32a13,13,0,0,0,2.59-.19,8.61,8.61,0,0,0,3.36-1.42,9.41,9.41,0,0,0,1.7-1.65,3.6,3.6,0,0,0,.62-.93Z" transform="translate(320.57 187.33)" fill="#fff"/>
      <path id="Path_99" data-name="Path 99" d="M-114.73-69.64v.33c0,.11-.07.45-.1.68v-1.25a2.248,2.248,0,0,0,.1.24Z" transform="translate(320.57 187.33)" fill="#fff"/>
      <path id="Path_100" data-name="Path 100" d="M-95-81.83a2.47,2.47,0,0,0-.79-.87,5.64,5.64,0,0,0-1.28-.62,5.3,5.3,0,0,0-2.8-.33,3,3,0,0,0-1.88,1l-.53.62-.66.79h0l1.39-2.64c-.3.1-.58.22-.86.34a10.83,10.83,0,0,0-2.17,1.16,5.51,5.51,0,0,0-1.14,1,10,10,0,0,0-1.06,1.83c-.51,1.09-1,2.19-1.52,3.28l-.07.14a.28.28,0,0,1,0-.15c.06-.33.11-.65.18-1a18.5,18.5,0,0,1,.71-2.35c.06-.16.1-.33.15-.5h-.14a8.66,8.66,0,0,0-1.56.79,11.69,11.69,0,0,0-4,4.46l-.43.24a3.48,3.48,0,0,0-1.27,1.28,6.51,6.51,0,0,0-1.57,5.19l-.69-.31.38,1.41-1.16-.15h0l.13.2a14,14,0,0,1,1.17,1.78.19.19,0,0,1,0,.2c-.55,1.19-1.07,2.4-1.52,3.64-.08.22-.15.44-.22.67A12.81,12.81,0,0,1-120.85-62a9.93,9.93,0,0,1-3.3-3.81,12.67,12.67,0,0,1-1.17-5.79,9.92,9.92,0,0,1,1.46-5.53,10.83,10.83,0,0,1,3.71-3.47,15.73,15.73,0,0,1,5-1.79,28.87,28.87,0,0,1,5.34-.49h4.17a3.69,3.69,0,0,0-.67-2.06,4.12,4.12,0,0,0-1.57-1.27,7.71,7.71,0,0,0-2.12-.63,16.612,16.612,0,0,0-2.39-.18,23,23,0,0,0-3.83.36,27.581,27.581,0,0,0-4.52,1.18q-.61-1.17-1.05-2.13a10.259,10.259,0,0,1-.67-2,14.511,14.511,0,0,1-.33-2.05,24.275,24.275,0,0,1-.09-2.43,43.641,43.641,0,0,1,6.54-1.61,35.519,35.519,0,0,1,5.85-.52,22.52,22.52,0,0,1,6.43.89,12.81,12.81,0,0,1,4.88,2.66A11.66,11.66,0,0,1-96.1-88,17.59,17.59,0,0,1-95-81.83Z" transform="translate(320.57 187.33)" fill="#fff"/>
      <path id="Path_101" data-name="Path 101" d="M-130.14-86.38a14.73,14.73,0,0,0-3-5.21A14.07,14.07,0,0,0-138-95a16.08,16.08,0,0,0-6.46-1.26,18.61,18.61,0,0,0-7.67,1.43,15.52,15.52,0,0,0-5.49,4,16.81,16.81,0,0,0-3.31,5.94A23.869,23.869,0,0,0-162-77.61a24.13,24.13,0,0,0,1,7.32,15.23,15.23,0,0,0,3.26,5.8A15,15,0,0,0-152-60.66a23.36,23.36,0,0,0,8.44,1.41,35.55,35.55,0,0,0,12.46-2.2,20.14,20.14,0,0,0-.76-5.13,22,22,0,0,0-1.66-4.25,26.671,26.671,0,0,1-4.86,1.41,23.419,23.419,0,0,1-4.45.46,9.33,9.33,0,0,1-5-1.19,6.32,6.32,0,0,1-2.62-4l20.8.1q.14-1,.32-2.43a28.9,28.9,0,0,0,.19-3.32A20,20,0,0,0-130.14-86.38ZM-150.51-82a6.14,6.14,0,0,1,1.87-4.23,5.54,5.54,0,0,1,3.77-1.35A4.74,4.74,0,0,1-141-86a6.69,6.69,0,0,1,1.45,4Z" transform="translate(320.57 187.33)" fill="#fff"/>
      <path id="Path_102" data-name="Path 102" d="M-167.62-80.72l-.1,20.45a27.509,27.509,0,0,1-3.22.43q-1.44.1-2.53.09t-2.6-.12a27.461,27.461,0,0,1-3.21-.46l.09-19.22q0-3.62-1.21-5.2a4.82,4.82,0,0,0-4-1.59,8.65,8.65,0,0,0-1.88.2,9.522,9.522,0,0,0-1.27.34,22.079,22.079,0,0,1,.59,5.47l-.1,20a27.55,27.55,0,0,1-3.22.43q-1.44.1-2.53.09t-2.6-.12a27.462,27.462,0,0,1-3.21-.46l.09-19.22q0-3.62-1.14-5.2t-4-1.59a10.239,10.239,0,0,0-1.61.13,3.39,3.39,0,0,0-1.06.27l-.12,25.58a27.55,27.55,0,0,1-3.22.43q-1.44.1-2.53.09t-2.6-.12a27.46,27.46,0,0,1-3.21-.46l.16-33.59q2.4-.81,5.75-1.58a38.05,38.05,0,0,1,8.49-.75,34.6,34.6,0,0,1,5.54.47A14.49,14.49,0,0,1-193-94.11a24.38,24.38,0,0,1,4.18-1.55,19.691,19.691,0,0,1,5.41-.66,31,31,0,0,1,5.5.54,12.52,12.52,0,0,1,5.12,2.18,12,12,0,0,1,3.74,4.74,19.06,19.06,0,0,1,1.43,8.14Z" transform="translate(320.57 187.33)" fill="#fff"/>
      <path id="Path_103" data-name="Path 103" d="M-225.49-95.84l-.16,33.73q-1.17.4-2.77.81t-3.42.77a36.623,36.623,0,0,1-3.73.56,35.39,35.39,0,0,1-3.76.19,40,40,0,0,1-6.7-.58,13.89,13.89,0,0,1-5.63-2.25,11.43,11.43,0,0,1-3.84-4.88,21,21,0,0,1-1.4-8.52l.1-20a23.262,23.262,0,0,1,3-.46q1.47-.13,2.84-.12t2.8.15a21.06,21.06,0,0,1,2.94.49l-.09,19q0,4.1,1.34,5.62a5.36,5.36,0,0,0,4.17,1.53,17.209,17.209,0,0,0,1.78-.06,7.251,7.251,0,0,0,.89-.13l.13-25.93a23.312,23.312,0,0,1,3-.46q1.47-.13,2.84-.12t2.8.15A21,21,0,0,1-225.49-95.84Z" transform="translate(320.57 187.33)" fill="#fff"/>
      <path id="Path_104" data-name="Path 104" d="M-260.9-67.76q.1,1.16.09,2.26t-.11,2.29a16.447,16.447,0,0,1-.46,2.56l-24.49-.12.24-35.37a23.31,23.31,0,0,1,3-.46q1.47-.13,2.84-.12t2.8.15a21.079,21.079,0,0,1,2.94.49l-.19,25.72,12.93.06A16.575,16.575,0,0,1-260.9-67.76Z" transform="translate(320.57 187.33)" fill="#fff"/>
    </g>
    <path id="Path_120" data-name="Path 120" d="M-174.58-46.86h-2.75V-44h-1.83v-9.72h4.58a3.44,3.44,0,0,1,3.2,1.635,3.44,3.44,0,0,1,0,3.59,3.44,3.44,0,0,1-3.2,1.635Zm-2.75-1.68h2.75a1.72,1.72,0,0,0,1.72-1.72,1.72,1.72,0,0,0-1.72-1.72h-2.75Z" transform="translate(2405.57 2233.34)" fill="#fff"/>
    <path id="Path_121" data-name="Path 121" d="M-168.21-53.72v3.8a2.53,2.53,0,0,1,2.14-1c1.94,0,2.8,1.32,2.8,3.33V-44H-165v-3.6c0-1.25-.65-1.78-1.56-1.78a1.75,1.75,0,0,0-1.243.576,1.75,1.75,0,0,0-.447,1.294V-44h-1.69v-9.72Z" transform="translate(2405.57 2233.34)" fill="#fff"/>
    <path id="Path_122" data-name="Path 122" d="M-155-47.41a3.42,3.42,0,0,1-1,2.572,3.42,3.42,0,0,1-2.572,1,3.41,3.41,0,0,1-2.562-1,3.41,3.41,0,0,1-.988-2.567,3.43,3.43,0,0,1,.974-2.559A3.43,3.43,0,0,1-158.61-51a3.46,3.46,0,0,1,2.592,1A3.46,3.46,0,0,1-155-47.41Zm-5.43,0a1.85,1.85,0,0,0,.489,1.41,1.85,1.85,0,0,0,1.371.59A1.85,1.85,0,0,0-157.2-46a1.85,1.85,0,0,0,.489-1.41,1.93,1.93,0,0,0-.515-1.386,1.93,1.93,0,0,0-1.345-.614,1.88,1.88,0,0,0-1.38.589,1.88,1.88,0,0,0-.51,1.411Z" transform="translate(2405.57 2233.34)" fill="#fff"/>
    <path id="Path_123" data-name="Path 123" d="M-151.61-52.77v1.94h1.89v1.46h-1.9v3a.85.85,0,0,0,.2.717.85.85,0,0,0,.689.283,1.94,1.94,0,0,0,.82-.21l.47,1.44a3.78,3.78,0,0,1-1.4.29,2.21,2.21,0,0,1-1.847-.643,2.21,2.21,0,0,1-.613-1.857v-3h-1.28v-1.46h1.28v-1.76Z" transform="translate(2405.57 2233.34)" fill="#fff"/>
    <path id="Path_124" data-name="Path 124" d="M-141.66-47.41a3.42,3.42,0,0,1-1,2.572,3.42,3.42,0,0,1-2.572,1,3.41,3.41,0,0,1-2.562-1,3.41,3.41,0,0,1-.988-2.567,3.43,3.43,0,0,1,.984-2.57A3.43,3.43,0,0,1-145.24-51a3.46,3.46,0,0,1,2.573,1.015,3.46,3.46,0,0,1,1.007,2.575Zm-5.43,0A1.85,1.85,0,0,0-146.6-46a1.85,1.85,0,0,0,1.371.59,1.85,1.85,0,0,0,1.371-.59,1.85,1.85,0,0,0,.489-1.41,1.93,1.93,0,0,0-.515-1.386,1.93,1.93,0,0,0-1.345-.614,1.88,1.88,0,0,0-1.361.6,1.88,1.88,0,0,0-.5,1.4Z" transform="translate(2405.57 2233.34)" fill="#fff"/>
    <path id="Path_125" data-name="Path 125" d="M-135.12-51.54l1.25.94-.76,1a2.92,2.92,0,0,1,.72,2,2.72,2.72,0,0,1-1.44,2.6,2.3,2.3,0,0,1,1.42,2.26c0,1.89-1.44,3.05-3.43,3.05s-3.47-1.21-3.47-3.05h1.68a1.62,1.62,0,0,0,.586,1.112,1.62,1.62,0,0,0,1.2.358c1,0,1.74-.53,1.74-1.47s-.89-1.37-1.74-1.37a3.2,3.2,0,0,1-2.533-.915,3.2,3.2,0,0,1-.937-2.525,3.34,3.34,0,0,1,.976-2.494,3.34,3.34,0,0,1,2.494-.976,2.73,2.73,0,0,1,1.57.39Zm-4,3.94a1.77,1.77,0,0,0,.477,1.344,1.77,1.77,0,0,0,1.313.556,1.77,1.77,0,0,0,1.306-.56,1.77,1.77,0,0,0,.474-1.34,1.8,1.8,0,0,0-.472-1.35,1.8,1.8,0,0,0-1.308-.58,1.79,1.79,0,0,0-1.348.561,1.79,1.79,0,0,0-.482,1.379Z" transform="translate(2405.57 2233.34)" fill="#fff"/>
    <path id="Path_126" data-name="Path 126" d="M-131.26-50.84l.12.79a2,2,0,0,1,1.93-1,2.6,2.6,0,0,1,1.76.65l-.76,1.47a1.69,1.69,0,0,0-1.22-.44,1.58,1.58,0,0,0-1.266.466,1.58,1.58,0,0,0-.444,1.274V-44h-1.69v-6.85Z" transform="translate(2405.57 2233.34)" fill="#fff"/>
    <path id="Path_127" data-name="Path 127" d="M-121.37-50.84h1.62V-44h-1.6l-.08-1a2.6,2.6,0,0,1-2.22,1.21,3.31,3.31,0,0,1-2.614-1,3.31,3.31,0,0,1-.916-2.643,3.33,3.33,0,0,1,.966-2.6,3.33,3.33,0,0,1,2.6-.966,2.51,2.51,0,0,1,2.18,1.11Zm-4.11,3.42a2,2,0,0,0,.557,1.466,2,2,0,0,0,1.443.614c2.67,0,2.67-4.15,0-4.15a2,2,0,0,0-1.436.607,2,2,0,0,0-.564,1.453Z" transform="translate(2405.57 2233.34)" fill="#fff"/>
    <path id="Path_128" data-name="Path 128" d="M-118.32-41.14v-9.71h1.58l.11.94A2.72,2.72,0,0,1-114.4-51a3.42,3.42,0,0,1,2.536,1.024,3.42,3.42,0,0,1,.974,2.556,3.34,3.34,0,0,1-.93,2.564,3.34,3.34,0,0,1-2.53,1.016,2.76,2.76,0,0,1-2.28-1v3.67Zm5.73-6.28a1.86,1.86,0,0,0-.543-1.4,1.86,1.86,0,0,0-1.4-.543,1.86,1.86,0,0,0-1.4.543,1.86,1.86,0,0,0-.543,1.4,1.9,1.9,0,0,0,.556,1.384,1.9,1.9,0,0,0,1.384.556,1.9,1.9,0,0,0,1.387-.549,1.9,1.9,0,0,0,.563-1.381Z" transform="translate(2405.57 2233.34)" fill="#fff"/>
    <path id="Path_129" data-name="Path 129" d="M-107.94-53.72v3.8a2.53,2.53,0,0,1,2.14-1c1.94,0,2.8,1.32,2.8,3.33V-44h-1.69v-3.6c0-1.25-.65-1.78-1.56-1.78a1.75,1.75,0,0,0-1.243.576,1.75,1.75,0,0,0-.447,1.294V-44h-1.69v-9.72Z" transform="translate(2405.57 2233.34)" fill="#fff"/>
    <path id="Path_130" data-name="Path 130" d="M-95-50.84l-4.18,9.71H-101l1.28-3-2.74-6.73h2l1,3,.65,1.93.71-1.89,1.25-3Z" transform="translate(2405.57 2233.34)" fill="#fff"/>
  </g>
</svg>
