<svg xmlns="http://www.w3.org/2000/svg" width="203.99" height="64.857" viewBox="0 0 203.99 64.857">
  <g id="Group_53" data-name="Group 53" transform="translate(-2139.12 -2286.6)">
    <g id="_Groupe_" data-name="&lt;Groupe&gt;" transform="translate(1483 1911.01)">
      <path id="Path_39" data-name="Path 39" d="M516.72,227.3v.56a6.694,6.694,0,0,1-.87-.2l.14-.07c.23-.09.46-.2.7-.28Z" transform="translate(320.57 187.33)" fill="#fff"/>
      <path id="Path_40" data-name="Path 40" d="M515.94,221.18a37,37,0,0,0-4.5,4.6,30.326,30.326,0,0,0-2,2.73l-.16-.07a4.29,4.29,0,0,1-.43-.22,33.611,33.611,0,0,1,6.12-7Z" transform="translate(320.57 187.33)" fill="#fff"/>
      <path id="Path_41" data-name="Path 41" d="M509.2,221.94a13.989,13.989,0,0,0-.69,1.53,17.317,17.317,0,0,0-.87,3.67,2.262,2.262,0,0,1-.15-.24,16.423,16.423,0,0,1,.47-3l.29-1.24h0a10.382,10.382,0,0,0-.71.78,3.5,3.5,0,0,1,1.27-1.29Z" transform="translate(320.57 187.33)" fill="#fff"/>
      <path id="Path_42" data-name="Path 42" d="M539.24,188.4l.3,7-.34.06a3.576,3.576,0,0,1-.5,0,4.462,4.462,0,0,1-.81-.09l-.12-4L536.68,194h-.97l-.32-.06-.94-2.62-.13,4a3.71,3.71,0,0,1-.78.08,4.149,4.149,0,0,1-.79-.09l.32-7,.44-.05h.86l.42.06,1.36,3.63,1.45-3.62.39-.05h.81Z" transform="translate(320.57 187.33)" fill="#fff"/>
      <path id="Path_43" data-name="Path 43" d="M532.11,188.74q.009.175,0,.35a4.672,4.672,0,0,1-.08.77H530.4v5.45a5.249,5.249,0,0,1-.86.08,5.17,5.17,0,0,1-.87-.09v-5.45h-1.63a3.351,3.351,0,0,1,0-1.52h5C532.07,188.49,532.09,188.62,532.11,188.74Z" transform="translate(320.57 187.33)" fill="#fff"/>
      <path id="Path_44" data-name="Path 44" d="M526.88,215.79a.259.259,0,0,1-.11.05c-1.14.29-2.27.6-3.38,1a24,24,0,0,0-7.21,4.14l-.24.2h-1l.82-.69a23.57,23.57,0,0,1,6.46-3.81,11.519,11.519,0,0,1,3.21-.84C525.93,215.81,526.4,215.8,526.88,215.79Z" transform="translate(320.57 187.33)" fill="#fff"/>
      <path id="Path_45" data-name="Path 45" d="M527.43,218.11l-.08,17.37q-2.62.75-6.34,1.48a39.231,39.231,0,0,1-7.85.72,30.811,30.811,0,0,1-6.57-.68,17.52,17.52,0,0,1-1.7-.47,33.322,33.322,0,0,1,3.88-8.24v-.07a4.291,4.291,0,0,0,.43.22l.16.07a27.358,27.358,0,0,0-1.75,3.06l-.15.34,2,.64-.64-.57H512a.21.21,0,0,0-.1-.07l-1.12-.46a4.911,4.911,0,0,1-1.32-.82.429.429,0,0,1-.07-.12.39.39,0,0,1,.12,0h.72a12.583,12.583,0,0,0,2.47-.22,14.868,14.868,0,0,0,3.41-1.09l.64-.31,1.1-.58a1.089,1.089,0,0,0,.17-.13h0c-.42-.07-.85-.11-1.28-.19v-.56a11.75,11.75,0,0,0,3.46-1.95c.66-.52,1.36-1,2-1.49l1.55-1.17c.07,0,.12-.11.2-.18h-.15a22.061,22.061,0,0,1-4.28.46,7.35,7.35,0,0,1-2.69-.44h-.1v-.05h2.33a13.111,13.111,0,0,0,2.61-.19,8.66,8.66,0,0,0,3.38-1.43,9.462,9.462,0,0,0,1.7-1.66,3.62,3.62,0,0,0,.63-.94Z" transform="translate(320.57 187.33)" fill="#fff"/>
      <path id="Path_46" data-name="Path 46" d="M507.64,227.14v.33c0,.11-.07.46-.1.68V226.9A2.265,2.265,0,0,0,507.64,227.14Z" transform="translate(320.57 187.33)" fill="#fff"/>
      <path id="Path_47" data-name="Path 47" d="M527.44,214.88a2.48,2.48,0,0,0-.79-.88,5.68,5.68,0,0,0-1.29-.62,5.33,5.33,0,0,0-2.82-.33,3,3,0,0,0-1.89,1l-.53.62-.66.79h0l1.39-2.66c-.3.1-.58.23-.86.35a10.89,10.89,0,0,0-2.18,1.16,5.539,5.539,0,0,0-1.15,1,10,10,0,0,0-1.06,1.84c-.52,1.1-1,2.2-1.53,3.3l-.07.14a.281.281,0,0,1,0-.15c.06-.33.11-.66.18-1a18.6,18.6,0,0,1,.71-2.36c.06-.16.1-.33.15-.5h-.14a8.71,8.71,0,0,0-1.57.79,11.76,11.76,0,0,0-4.07,4.48l-.43.24a3.5,3.5,0,0,0-1.27,1.29,6.55,6.55,0,0,0-1.58,5.22l-.7-.31.38,1.42-1.17-.15h0c0,.07.08.14.13.2a14.059,14.059,0,0,1,1.17,1.79.19.19,0,0,1,0,.2c-.56,1.2-1.07,2.41-1.52,3.66-.08.22-.15.45-.22.67a12.891,12.891,0,0,1-2.5-1.32,10,10,0,0,1-3.32-3.83,12.741,12.741,0,0,1-1.18-5.82,10,10,0,0,1,1.47-5.57,10.89,10.89,0,0,1,3.73-3.49,15.821,15.821,0,0,1,5-1.8,29,29,0,0,1,5.37-.49h4.2a3.71,3.71,0,0,0-.68-2.07,4.141,4.141,0,0,0-1.58-1.28,7.751,7.751,0,0,0-2.13-.63,16.7,16.7,0,0,0-2.41-.18,23.12,23.12,0,0,0-3.85.36,27.74,27.74,0,0,0-4.55,1.18q-.61-1.17-1.06-2.14a10.323,10.323,0,0,1-.68-2,14.583,14.583,0,0,1-.33-2.07q-.1-1.07-.09-2.44A43.89,43.89,0,0,1,506,201a35.721,35.721,0,0,1,5.88-.52,22.65,22.65,0,0,1,6.46.89,12.881,12.881,0,0,1,4.91,2.67,11.719,11.719,0,0,1,3.11,4.59A17.679,17.679,0,0,1,527.44,214.88Z" transform="translate(320.57 187.33)" fill="#fff"/>
      <path id="Path_48" data-name="Path 48" d="M492.14,210.3a14.809,14.809,0,0,0-3-5.24,14.15,14.15,0,0,0-4.83-3.43,16.17,16.17,0,0,0-6.49-1.27,18.71,18.71,0,0,0-7.71,1.44,15.6,15.6,0,0,0-5.52,4,16.9,16.9,0,0,0-3.33,6,24,24,0,0,0-1.14,7.36,24.261,24.261,0,0,0,1,7.37,15.32,15.32,0,0,0,3.27,5.83,15.07,15.07,0,0,0,5.76,3.85,23.49,23.49,0,0,0,8.49,1.42,35.749,35.749,0,0,0,12.53-2.21,20.252,20.252,0,0,0-.77-5.16,22.131,22.131,0,0,0-1.66-4.27,26.821,26.821,0,0,1-4.89,1.42,23.55,23.55,0,0,1-4.47.46,9.38,9.38,0,0,1-5-1.19,6.36,6.36,0,0,1-2.63-4l20.91.1q.14-1,.32-2.44a29.062,29.062,0,0,0,.19-3.34,20.068,20.068,0,0,0-1.03-6.7Zm-20.49,4.41a6.17,6.17,0,0,1,1.88-4.26,5.57,5.57,0,0,1,3.79-1.36,4.76,4.76,0,0,1,3.88,1.64,6.73,6.73,0,0,1,1.46,4Z" transform="translate(320.57 187.33)" fill="#fff"/>
      <path id="Path_49" data-name="Path 49" d="M454.45,216l-.1,20.57a27.673,27.673,0,0,1-3.24.43q-1.44.1-2.55.09T446,237a27.611,27.611,0,0,1-3.23-.46l.09-19.33q0-3.64-1.21-5.23a4.85,4.85,0,0,0-4.05-1.6,8.7,8.7,0,0,0-1.89.2,9.581,9.581,0,0,0-1.27.34,22.2,22.2,0,0,1,.59,5.51l-.1,20.09a27.7,27.7,0,0,1-3.24.43q-1.44.1-2.55.09t-2.61-.12a27.614,27.614,0,0,1-3.23-.46l.09-19.33q0-3.64-1.14-5.23t-4-1.6a10.3,10.3,0,0,0-1.62.13,3.41,3.41,0,0,0-1.07.27l-.12,25.73a27.7,27.7,0,0,1-3.24.43q-1.44.1-2.55.09t-2.61-.12a27.611,27.611,0,0,1-3.23-.46l.16-33.78q2.41-.81,5.79-1.59a38.26,38.26,0,0,1,8.53-.75,34.789,34.789,0,0,1,5.57.47,14.57,14.57,0,0,1,5.08,1.85,24.52,24.52,0,0,1,4.2-1.56,19.8,19.8,0,0,1,5.44-.66,31.192,31.192,0,0,1,5.53.54,12.59,12.59,0,0,1,5.15,2.19,12.08,12.08,0,0,1,3.76,4.76A19.159,19.159,0,0,1,454.45,216Z" transform="translate(320.57 187.33)" fill="#fff"/>
      <path id="Path_50" data-name="Path 50" d="M396.26,200.79l-.16,33.91q-1.17.41-2.79.81t-3.44.77q-1.82.37-3.75.57a35.587,35.587,0,0,1-3.79.19,40.241,40.241,0,0,1-6.74-.58,14,14,0,0,1-5.66-2.26,11.49,11.49,0,0,1-3.86-4.9,21.089,21.089,0,0,1-1.4-8.57l.1-20.09a23.385,23.385,0,0,1,3-.47q1.48-.13,2.86-.12t2.82.15a21.18,21.18,0,0,1,3,.5l-.09,19.12q0,4.13,1.35,5.65A5.39,5.39,0,0,0,381.9,227a17.313,17.313,0,0,0,1.79-.06,7.287,7.287,0,0,0,.89-.13l.13-26.07a23.439,23.439,0,0,1,3-.47q1.48-.13,2.85-.12t2.82.15a21.152,21.152,0,0,1,2.88.49Z" transform="translate(320.57 187.33)" fill="#fff"/>
      <path id="Path_51" data-name="Path 51" d="M360.66,229q.1,1.17.09,2.27t-.11,2.3a16.547,16.547,0,0,1-.46,2.58l-24.63-.12.24-35.56a23.44,23.44,0,0,1,3-.47q1.48-.13,2.86-.12t2.82.15a21.192,21.192,0,0,1,3,.5l-.19,25.87,13,.06a16.657,16.657,0,0,1,.38,2.54Z" transform="translate(320.57 187.33)" fill="#fff"/>
    </g>
    <path id="Path_141" data-name="Path 141" d="M503.33,250h-2.76v2.88h-1.84v-9.77h4.61a3.46,3.46,0,1,1-.01,6.89Zm-2.76-1.69h2.76a1.73,1.73,0,1,0,0-3.46h-2.76Z" transform="translate(1803.57 2098.34)" fill="#fff"/>
    <path id="Path_142" data-name="Path 142" d="M509.33,246l.13.8a2,2,0,0,1,1.94-1,2.61,2.61,0,0,1,1.77.66L512.4,248a1.7,1.7,0,0,0-1.23-.45,1.59,1.59,0,0,0-1.72,1.75v3.63h-1.7V246Z" transform="translate(1803.57 2098.34)" fill="#fff"/>
    <path id="Path_143" data-name="Path 143" d="M515.66,244.1a1,1,0,1,1-1-1A1,1,0,0,1,515.66,244.1Zm-1.85,1.9v6.91h1.7V246Z" transform="translate(1803.57 2098.34)" fill="#fff"/>
    <path id="Path_144" data-name="Path 144" d="M522.11,252.92v-3.6a1.64,1.64,0,0,0-1.66-1.84,1.81,1.81,0,0,0-1.76,1.93v3.52H517V246h1.52l.11.94a3.1,3.1,0,0,1,2.26-1c1.62,0,2.92,1.21,2.92,3.38v3.62Z" transform="translate(1803.57 2098.34)" fill="#fff"/>
    <path id="Path_145" data-name="Path 145" d="M527.39,244.1v2h1.9v1.47h-1.91v3a.85.85,0,0,0,.89,1,2,2,0,0,0,.82-.21l.47,1.45a3.81,3.81,0,0,1-1.41.29,2.22,2.22,0,0,1-2.47-2.51v-3H524.4v-1.47h1.28v-1.77Z" transform="translate(1803.57 2098.34)" fill="#fff"/>
  </g>
</svg>
