<svg xmlns="http://www.w3.org/2000/svg" width="203.27" height="68.7" viewBox="0 0 203.27 68.7">
  <g id="Group_51" data-name="Group 51" transform="translate(-2200.84 -2387.37)">
    <g id="_Groupe_" data-name="&lt;Groupe&gt;" transform="translate(2161 2182.01)">
      <path id="Path_19" data-name="Path 19" d="M-100.19,56.91v.56a6.669,6.669,0,0,1-.86-.2l.14-.07c.23-.09.46-.2.7-.28Z" transform="translate(320.57 187.33)" fill="#fff"/>
      <path id="Path_20" data-name="Path 20" d="M-101,50.82a36.82,36.82,0,0,0-4.48,4.59,30.21,30.21,0,0,0-2,2.72l-.16-.07a4.281,4.281,0,0,1-.42-.22,33.49,33.49,0,0,1,6.1-7Z" transform="translate(320.57 187.33)" fill="#fff"/>
      <path id="Path_21" data-name="Path 21" d="M-107.69,51.57a13.909,13.909,0,0,0-.69,1.53,17.25,17.25,0,0,0-.87,3.66,2.25,2.25,0,0,1-.15-.24,16.359,16.359,0,0,1,.47-2.94l.29-1.24h0a10.348,10.348,0,0,0-.71.78,3.49,3.49,0,0,1,1.27-1.28Z" transform="translate(320.57 187.33)" fill="#fff"/>
      <path id="Path_22" data-name="Path 22" d="M-77.76,18.15l.3,6.93-.34.06a3.56,3.56,0,0,1-.5,0,4.45,4.45,0,0,1-.81-.09l-.12-4-1.08,2.64h-.97l-.32-.06-.94-2.61-.13,4a3.7,3.7,0,0,1-.78.08,4.13,4.13,0,0,1-.79-.09l.31-6.93.44-.05h.86l.42.06,1.36,3.62,1.44-3.6.39-.05h.81Z" transform="translate(320.57 187.33)" fill="#fff"/>
      <path id="Path_23" data-name="Path 23" d="M-84.87,18.49a3.469,3.469,0,0,1,0,.35,4.651,4.651,0,0,1-.08.77h-1.62v5.43a5.231,5.231,0,0,1-.85.08A5.15,5.15,0,0,1-88.3,25V19.57h-1.62A3.749,3.749,0,0,1-90,18.8a3.771,3.771,0,0,1,.09-.75h5C-84.9,18.24-84.88,18.37-84.87,18.49Z" transform="translate(320.57 187.33)" fill="#fff"/>
      <path id="Path_24" data-name="Path 24" d="M-90.08,45.44a.26.26,0,0,1-.11.05c-1.13.29-2.26.6-3.37,1a23.9,23.9,0,0,0-7.19,4.12l-.24.2h-1l.82-.69a23.48,23.48,0,0,1,6.44-3.79,11.48,11.48,0,0,1,3.2-.83C-91,45.46-90.55,45.46-90.08,45.44Z" transform="translate(320.57 187.33)" fill="#fff"/>
      <path id="Path_25" data-name="Path 25" d="M-89.53,47.76l-.08,17.31q-2.61.74-6.31,1.48a39.1,39.1,0,0,1-7.82.72,30.7,30.7,0,0,1-6.54-.68,17.457,17.457,0,0,1-1.69-.47,33.21,33.21,0,0,1,3.87-8.21v-.07a4.28,4.28,0,0,0,.42.22l.16.07a27.259,27.259,0,0,0-1.74,3l-.15.34,2,.63-.63-.57h3.06a.21.21,0,0,0-.1-.07L-106.2,61a4.89,4.89,0,0,1-1.31-.82.42.42,0,0,1-.07-.12.39.39,0,0,1,.12,0h.72a12.539,12.539,0,0,0,2.46-.22,14.82,14.82,0,0,0,3.4-1.09l.64-.31,1.1-.57a1.09,1.09,0,0,0,.17-.13h0c-.42-.07-.85-.11-1.27-.19v-.56A11.71,11.71,0,0,0-96.75,55c.66-.52,1.35-1,2-1.49l1.55-1.17c.07,0,.12-.11.19-.18h-.15a22,22,0,0,1-4.26.46,7.32,7.32,0,0,1-2.68-.43h-.1v-.05h2.33a13.07,13.07,0,0,0,2.6-.19,8.63,8.63,0,0,0,3.37-1.42,9.43,9.43,0,0,0,1.7-1.66,3.6,3.6,0,0,0,.62-.93Z" transform="translate(320.57 187.33)" fill="#fff"/>
      <path id="Path_26" data-name="Path 26" d="M-109.24,56.75v.33c0,.11-.07.45-.1.68V56.51a2.248,2.248,0,0,0,.1.24Z" transform="translate(320.57 187.33)" fill="#fff"/>
      <path id="Path_27" data-name="Path 27" d="M-89.51,44.54a2.47,2.47,0,0,0-.79-.87A5.66,5.66,0,0,0-91.59,43a5.31,5.31,0,0,0-2.81-.33,3,3,0,0,0-1.88,1l-.53.62-.66.79h0l1.39-2.65a8.141,8.141,0,0,0-.86.35A10.85,10.85,0,0,0-99.15,44a5.52,5.52,0,0,0-1.15,1,10,10,0,0,0-1.06,1.84c-.52,1.09-1,2.19-1.52,3.29l-.07.14a.28.28,0,0,1,0-.15c.06-.33.11-.65.18-1a18.532,18.532,0,0,1,.71-2.35c.06-.16.1-.33.15-.5h-.18a8.68,8.68,0,0,0-1.57.79,11.72,11.72,0,0,0-4.05,4.46l-.43.24a3.49,3.49,0,0,0-1.27,1.28A6.52,6.52,0,0,0-111,58.3l-.69-.31.38,1.41-1.17-.15h0l.13.2a14,14,0,0,1,1.17,1.78.19.19,0,0,1,0,.2c-.55,1.2-1.07,2.41-1.52,3.64-.08.22-.15.44-.22.67a12.84,12.84,0,0,1-2.49-1.32,10,10,0,0,1-3.31-3.82,12.7,12.7,0,0,1-1.17-5.8,9.94,9.94,0,0,1,1.47-5.55,10.85,10.85,0,0,1,3.72-3.48,15.77,15.77,0,0,1,5-1.79,28.921,28.921,0,0,1,5.35-.49h4.18a3.7,3.7,0,0,0-.68-2.06,4.12,4.12,0,0,0-1.57-1.28,7.72,7.72,0,0,0-2.12-.63,16.64,16.64,0,0,0-2.4-.18,23,23,0,0,0-3.84.36,27.64,27.64,0,0,0-4.53,1.18q-.61-1.17-1.05-2.13a10.28,10.28,0,0,1-.68-2,14.541,14.541,0,0,1-.33-2.06,24.27,24.27,0,0,1-.09-2.43,43.731,43.731,0,0,1,6.55-1.61,35.6,35.6,0,0,1,5.86-.52,22.57,22.57,0,0,1,6.44.89,12.84,12.84,0,0,1,4.89,2.66,11.68,11.68,0,0,1,3.1,4.57,17.62,17.62,0,0,1,1.11,6.29Z" transform="translate(320.57 187.33)" fill="#fff"/>
      <path id="Path_28" data-name="Path 28" d="M-124.69,40a14.76,14.76,0,0,0-3-5.22,14.1,14.1,0,0,0-4.82-3.42A16.12,16.12,0,0,0-139,30.07a18.65,18.65,0,0,0-7.68,1.44,15.55,15.55,0,0,0-5.5,4,16.84,16.84,0,0,0-3.32,5.95,23.92,23.92,0,0,0-1.13,7.33,24.17,24.17,0,0,0,1,7.34,15.26,15.26,0,0,0,3.26,5.81,15,15,0,0,0,5.74,3.83,23.41,23.41,0,0,0,8.46,1.41A35.62,35.62,0,0,0-125.67,65a20.18,20.18,0,0,0-.76-5.14,22,22,0,0,0-1.66-4.26A26.719,26.719,0,0,1-133,57a23.47,23.47,0,0,1-4.46.46,9.34,9.34,0,0,1-5-1.19,6.34,6.34,0,0,1-2.62-4l20.84.1q.14-1,.32-2.43a29,29,0,0,0,.19-3.32A20,20,0,0,0-124.69,40Zm-20.41,4.39a6.15,6.15,0,0,1,1.87-4.24,5.55,5.55,0,0,1,3.78-1.35,4.75,4.75,0,0,1,3.87,1.63,6.7,6.7,0,0,1,1.45,4Z" transform="translate(320.57 187.33)" fill="#fff"/>
      <path id="Path_29" data-name="Path 29" d="M-162.25,45.66l-.1,20.5a27.57,27.57,0,0,1-3.22.43q-1.44.1-2.54.09t-2.6-.12a27.522,27.522,0,0,1-3.22-.46l.09-19.26q0-3.63-1.21-5.22a4.83,4.83,0,0,0-4-1.6,8.67,8.67,0,0,0-1.89.2,9.539,9.539,0,0,0-1.27.34,22.13,22.13,0,0,1,.59,5.49l-.1,20a27.6,27.6,0,0,1-3.22.43q-1.44.1-2.54.09t-2.6-.12a27.522,27.522,0,0,1-3.22-.46l.09-19.26q0-3.63-1.14-5.21t-4-1.6a10.27,10.27,0,0,0-1.61.13,3.4,3.4,0,0,0-1.06.27L-201.14,66a27.6,27.6,0,0,1-3.22.43q-1.44.1-2.54.09t-2.6-.12a27.522,27.522,0,0,1-3.22-.46l.16-33.66q2.4-.81,5.77-1.58a38.13,38.13,0,0,1,8.5-.75,34.67,34.67,0,0,1,5.55.47,14.52,14.52,0,0,1,5.06,1.84,24.43,24.43,0,0,1,4.19-1.56,19.73,19.73,0,0,1,5.42-.66,31.08,31.08,0,0,1,5.52.54,12.55,12.55,0,0,1,5.13,2.18,12,12,0,0,1,3.75,4.75,19.1,19.1,0,0,1,1.42,8.15Z" transform="translate(320.57 187.33)" fill="#fff"/>
      <path id="Path_30" data-name="Path 30" d="M-220.23,30.5l-.16,33.79q-1.17.4-2.78.81t-3.43.77a37.1,37.1,0,0,1-3.74.56,35.459,35.459,0,0,1-3.77.19,40.09,40.09,0,0,1-6.71-.58,13.92,13.92,0,0,1-5.64-2.26,11.45,11.45,0,0,1-3.85-4.89,21,21,0,0,1-1.4-8.54l.1-20a23.309,23.309,0,0,1,3-.47q1.48-.13,2.85-.12t2.81.15a21.1,21.1,0,0,1,2.95.49l-.09,19.06q0,4.11,1.34,5.63a5.37,5.37,0,0,0,4.17,1.53,17.25,17.25,0,0,0,1.78-.06,7.259,7.259,0,0,0,.89-.13l.13-26a23.358,23.358,0,0,1,3-.47q1.47-.13,2.84-.12t2.81.15a21.07,21.07,0,0,1,2.9.51Z" transform="translate(320.57 187.33)" fill="#fff"/>
      <path id="Path_31" data-name="Path 31" d="M-255.71,58.64q.1,1.17.09,2.26t-.11,2.3a16.49,16.49,0,0,1-.46,2.57l-24.54-.12.24-35.44a23.359,23.359,0,0,1,3-.47q1.48-.13,2.85-.12t2.81.15a21.12,21.12,0,0,1,2.95.49L-269.1,56l13,.06a16.6,16.6,0,0,1,.39,2.58Z" transform="translate(320.57 187.33)" fill="#fff"/>
    </g>
    <path id="Path_131" data-name="Path 131" d="M-129,74.38h-3.09V72.71h8v1.67h-3.09v8.07H-129Z" transform="translate(2481.57 2369.34)" fill="#fff"/>
    <path id="Path_132" data-name="Path 132" d="M-123,75.59l.13.79a2,2,0,0,1,1.93-1,2.6,2.6,0,0,1,1.77.65l-.77,1.47a1.7,1.7,0,0,0-1.22-.45,1.58,1.58,0,0,0-1.266.466,1.58,1.58,0,0,0-.444,1.274v3.62h-1.7V75.59Z" transform="translate(2481.57 2369.34)" fill="#fff"/>
    <path id="Path_133" data-name="Path 133" d="M-113.07,75.59h1.63v6.86H-113l-.08-1a2.61,2.61,0,0,1-2.23,1.21,3.32,3.32,0,0,1-2.652-.987A3.32,3.32,0,0,1-118.89,79a3.34,3.34,0,0,1,.965-2.618,3.34,3.34,0,0,1,2.615-.972,2.52,2.52,0,0,1,2.18,1.11ZM-117.19,79a2,2,0,0,0,.553,1.473,2,2,0,0,0,1.447.617c2.67,0,2.67-4.16,0-4.16a2,2,0,0,0-1.44.61A2,2,0,0,0-117.19,79Z" transform="translate(2481.57 2369.34)" fill="#fff"/>
    <path id="Path_134" data-name="Path 134" d="M-108.16,73.66a1,1,0,0,1-1,1,1,1,0,0,1-1-1,1,1,0,0,1,1-1A1,1,0,0,1-108.16,73.66Zm-1.84,1.9v6.89h1.7V75.56Z" transform="translate(2481.57 2369.34)" fill="#fff"/>
    <path id="Path_135" data-name="Path 135" d="M-101.73,82.45V78.86a1.64,1.64,0,0,0-.4-1.312A1.64,1.64,0,0,0-103.39,77a1.8,1.8,0,0,0-1.284.587,1.8,1.8,0,0,0-.466,1.333v3.51h-1.68V75.58h1.52l.11.93a3.09,3.09,0,0,1,2.25-1c1.61,0,2.91,1.21,2.91,3.37v3.6Z" transform="translate(2481.57 2369.34)" fill="#fff"/>
    <path id="Path_136" data-name="Path 136" d="M-96.72,73.66a1,1,0,0,1-1,1,1,1,0,0,1-1-1,1,1,0,0,1,1-1A1,1,0,0,1-96.72,73.66Zm-1.85,1.91v6.89h1.7v-6.9Z" transform="translate(2481.57 2369.34)" fill="#fff"/>
    <path id="Path_137" data-name="Path 137" d="M-90,74.89l1.25.95-.77,1a2.92,2.92,0,0,1,.72,2,2.72,2.72,0,0,1-1.4,2.56,2.31,2.31,0,0,1,1.42,2.27c0,1.89-1.45,3.06-3.44,3.06s-3.48-1.21-3.48-3.06H-94a1.62,1.62,0,0,0,.586,1.112,1.62,1.62,0,0,0,1.2.358c1,0,1.74-.53,1.74-1.47s-.89-1.38-1.74-1.38a3.21,3.21,0,0,1-2.54-.918,3.21,3.21,0,0,1-.94-2.532,3.35,3.35,0,0,1,.979-2.5,3.35,3.35,0,0,1,2.5-.979,2.73,2.73,0,0,1,1.57.39Zm-4,4a1.77,1.77,0,0,0,.473,1.351,1.77,1.77,0,0,0,1.317.559,1.77,1.77,0,0,0,1.31-.563,1.77,1.77,0,0,0,.47-1.347,1.8,1.8,0,0,0-.472-1.35,1.8,1.8,0,0,0-1.308-.58,1.79,1.79,0,0,0-1.3.556A1.79,1.79,0,0,0-94,78.84Z" transform="translate(2481.57 2369.34)" fill="#fff"/>
  </g>
</svg>
