<svg xmlns="http://www.w3.org/2000/svg" width="202.8" height="64.448" viewBox="0 0 202.8 64.448">
  <g id="Group_52" data-name="Group 52" transform="translate(-2119.07 -2297.57)">
    <path id="Path_138" data-name="Path 138" d="M210.21,78.49h-1.55l-1.21-3.05-1-3.07-1,3.1-1.18,3h-1.55l-3.57-9.72h2.05l2.29,7,2.36-7H207l2.43,7,2.22-7h2.05Z" transform="translate(2081.57 2283.34)" fill="#fff"/>
    <path id="Path_139" data-name="Path 139" d="M215,75.67a1.82,1.82,0,0,0,2,1.46,2.82,2.82,0,0,0,1.83-.64L220,77.56a4.2,4.2,0,0,1-3,1.11,3.62,3.62,0,1,1-.12-7.23c2.29,0,3.72,1.42,3.46,4.23Zm3.72-1.4a1.57,1.57,0,0,0-1.78-1.33A1.84,1.84,0,0,0,215,74.27Z" transform="translate(2081.57 2283.34)" fill="#fff"/>
    <path id="Path_140" data-name="Path 140" d="M223.35,68.78v3.79a2.83,2.83,0,0,1,2.25-1.1,3.28,3.28,0,0,1,3.48,3.58,3.36,3.36,0,0,1-3.53,3.58,2.49,2.49,0,0,1-2.21-1.1l-.11.94h-1.58v-9.7Zm.11,6.27a2,2,0,1,0,3.93,0,1.89,1.89,0,0,0-1.94-2,2,2,0,0,0-1.99,2.01Z" transform="translate(2081.57 2283.34)" fill="#fff"/>
    <g id="_Groupe_" data-name="&lt;Groupe&gt;" transform="translate(1761 2096.01)">
      <path id="Path_6" data-name="Path 6" d="M217.61,53v.56a6.66,6.66,0,0,1-.86-.2l.14-.07c.23-.09.46-.2.7-.28Z" transform="translate(320.57 187.33)" fill="#fff"/>
      <path id="Path_7" data-name="Path 7" d="M216.83,46.93a36.731,36.731,0,0,0-4.47,4.57,30.138,30.138,0,0,0-2,2.71l-.16-.07a4.267,4.267,0,0,1-.42-.22,33.41,33.41,0,0,1,6.09-7Z" transform="translate(320.57 187.33)" fill="#fff"/>
      <path id="Path_8" data-name="Path 8" d="M210.13,47.68a13.877,13.877,0,0,0-.68,1.52,17.21,17.21,0,0,0-.87,3.65,2.239,2.239,0,0,1-.15-.24,16.331,16.331,0,0,1,.47-2.94l.29-1.23h0a10.332,10.332,0,0,0-.71.78,3.48,3.48,0,0,1,1.27-1.28Z" transform="translate(320.57 187.33)" fill="#fff"/>
      <path id="Path_9" data-name="Path 9" d="M240,14.34l.3,6.91-.34.06a3.56,3.56,0,0,1-.5,0,4.44,4.44,0,0,1-.8-.09l-.12-4-1.08,2.64h-.97l-.32-.05-.94-2.61-.13,4a3.69,3.69,0,0,1-.77.08,4.12,4.12,0,0,1-.78-.09l.31-6.91.44-.05h.86l.42.06,1.36,3.61,1.44-3.59.39-.05h.81Z" transform="translate(320.57 187.33)" fill="#fff"/>
      <path id="Path_10" data-name="Path 10" d="M232.9,14.68a3.469,3.469,0,0,1,0,.35,4.64,4.64,0,0,1-.08.76H231.2v5.42a5.22,5.22,0,0,1-.85.08,5.14,5.14,0,0,1-.86-.09V15.78h-1.62a3.33,3.33,0,0,1,0-1.51h4.95A1.833,1.833,0,0,1,232.9,14.68Z" transform="translate(320.57 187.33)" fill="#fff"/>
      <path id="Path_11" data-name="Path 11" d="M227.71,41.57a.26.26,0,0,1-.11.05c-1.13.29-2.26.6-3.36,1a23.85,23.85,0,0,0-7.17,4.11l-.24.2h-1l.82-.69a23.43,23.43,0,0,1,6.42-3.78,11.45,11.45,0,0,1,3.19-.83C226.76,41.59,227.23,41.59,227.71,41.57Z" transform="translate(320.57 187.33)" fill="#fff"/>
      <path id="Path_12" data-name="Path 12" d="M228.26,43.88l-.08,17.27q-2.6.74-6.3,1.47a39,39,0,0,1-7.8.71,30.63,30.63,0,0,1-6.53-.68,17.42,17.42,0,0,1-1.69-.46A33.13,33.13,0,0,1,209.72,54v-.07a4.269,4.269,0,0,0,.42.22l.16.07a27.2,27.2,0,0,0-1.74,3l-.15.34,2,.63-.63-.57h3.06a.21.21,0,0,0-.1-.07l-1.12-.46a4.88,4.88,0,0,1-1.31-.81.419.419,0,0,1-.07-.12.39.39,0,0,1,.12,0h.71a12.51,12.51,0,0,0,2.45-.22A14.78,14.78,0,0,0,217,54.81l.64-.31,1.09-.57a1.08,1.08,0,0,0,.17-.13h0c-.42-.07-.84-.11-1.27-.19V53a11.68,11.68,0,0,0,3.44-1.94c.65-.52,1.35-1,2-1.48l1.54-1.17c.07,0,.12-.11.19-.18h-.15a21.931,21.931,0,0,1-4.25.46,7.3,7.3,0,0,1-2.67-.43h-.1v-.05H220a13,13,0,0,0,2.59-.19,8.61,8.61,0,0,0,3.36-1.42,9.4,9.4,0,0,0,1.69-1.65,3.59,3.59,0,0,0,.62-.93Z" transform="translate(320.57 187.33)" fill="#fff"/>
      <path id="Path_13" data-name="Path 13" d="M208.59,52.85v.33c0,.11-.07.45-.1.68V52.61A2.24,2.24,0,0,0,208.59,52.85Z" transform="translate(320.57 187.33)" fill="#fff"/>
      <path id="Path_14" data-name="Path 14" d="M228.27,40.67a2.47,2.47,0,0,0-.79-.87,5.64,5.64,0,0,0-1.28-.62,5.3,5.3,0,0,0-2.8-.33,3,3,0,0,0-1.88,1l-.53.62-.66.79h0l1.39-2.64c-.3.1-.58.22-.86.34a10.819,10.819,0,0,0-2.17,1.16,5.51,5.51,0,0,0-1.14,1A10,10,0,0,0,216.46,43c-.51,1.09-1,2.18-1.52,3.28l-.07.14a.28.28,0,0,1,0-.15c.06-.33.11-.65.18-1a18.491,18.491,0,0,1,.71-2.35c.06-.16.1-.33.15-.5h-.14a8.66,8.66,0,0,0-1.56.79,11.69,11.69,0,0,0-4,4.45l-.43.24a3.48,3.48,0,0,0-1.27,1.28,6.51,6.51,0,0,0-1.57,5.19l-.69-.31.38,1.41-1.16-.15h0l.13.2a14,14,0,0,1,1.17,1.78.19.19,0,0,1,0,.2c-.55,1.19-1.07,2.4-1.51,3.64-.08.22-.15.44-.22.67a12.81,12.81,0,0,1-2.49-1.32,9.92,9.92,0,0,1-3.3-3.81A12.67,12.67,0,0,1,198,50.94a9.91,9.91,0,0,1,1.46-5.53,10.83,10.83,0,0,1,3.71-3.47,15.73,15.73,0,0,1,5-1.79,28.86,28.86,0,0,1,5.34-.49h4.17a3.69,3.69,0,0,0-.67-2.06,4.12,4.12,0,0,0-1.57-1.27,7.71,7.71,0,0,0-2.12-.63,16.6,16.6,0,0,0-2.39-.18,23,23,0,0,0-3.83.36,27.57,27.57,0,0,0-4.52,1.17,23.319,23.319,0,0,1-1-2.13,10.26,10.26,0,0,1-.67-2,14.5,14.5,0,0,1-.33-2.05,24.278,24.278,0,0,1-.09-2.43A43.63,43.63,0,0,1,207,26.92a35.51,35.51,0,0,1,5.85-.52,22.52,22.52,0,0,1,6.42.89,12.81,12.81,0,0,1,4.88,2.66,11.65,11.65,0,0,1,3.09,4.56A17.58,17.58,0,0,1,228.27,40.67Z" transform="translate(320.57 187.33)" fill="#fff"/>
      <path id="Path_15" data-name="Path 15" d="M193.18,36.11a14.72,14.72,0,0,0-3-5.21,14.07,14.07,0,0,0-4.8-3.41,16.08,16.08,0,0,0-6.46-1.26,18.6,18.6,0,0,0-7.67,1.43,15.51,15.51,0,0,0-5.49,4,16.8,16.8,0,0,0-3.31,5.93,23.86,23.86,0,0,0-1.13,7.31,24.12,24.12,0,0,0,1,7.32,15.23,15.23,0,0,0,3.26,5.8,15,15,0,0,0,5.73,3.82,23.35,23.35,0,0,0,8.44,1.41A35.547,35.547,0,0,0,192.205,61a20.131,20.131,0,0,0-.765-5.128,22,22,0,0,0-1.66-4.25,26.66,26.66,0,0,1-4.86,1.41,23.41,23.41,0,0,1-4.45.46,9.32,9.32,0,0,1-5-1.19,6.32,6.32,0,0,1-2.61-4l20.79.1q.14-1,.32-2.43a28.9,28.9,0,0,0,.19-3.32A20,20,0,0,0,193.18,36.11ZM172.81,40.5a6.14,6.14,0,0,1,1.87-4.23,5.54,5.54,0,0,1,3.77-1.35,4.74,4.74,0,0,1,3.86,1.63,6.69,6.69,0,0,1,1.45,4Z" transform="translate(320.57 187.33)" fill="#fff"/>
      <path id="Path_16" data-name="Path 16" d="M155.71,41.78l-.1,20.45a27.5,27.5,0,0,1-3.22.43q-1.44.1-2.53.09t-2.6-.12a27.45,27.45,0,0,1-3.21-.46L144.14,43q0-3.62-1.21-5.2a4.82,4.82,0,0,0-4-1.59,8.65,8.65,0,0,0-1.88.2,9.52,9.52,0,0,0-1.27.34,22.071,22.071,0,0,1,.59,5.47l-.1,20a27.541,27.541,0,0,1-3.22.43q-1.44.1-2.53.09t-2.6-.12a27.452,27.452,0,0,1-3.21-.46l.09-19.22q0-3.62-1.14-5.2t-4-1.59a10.24,10.24,0,0,0-1.61.13,3.39,3.39,0,0,0-1.06.27L116.9,62a27.541,27.541,0,0,1-3.22.43q-1.44.1-2.53.09t-2.6-.12a27.449,27.449,0,0,1-3.21-.46l.16-33.58q2.4-.81,5.75-1.58a38,38,0,0,1,8.48-.75,34.59,34.59,0,0,1,5.54.47,14.49,14.49,0,0,1,5.05,1.84,24.379,24.379,0,0,1,4.18-1.55,19.68,19.68,0,0,1,5.41-.66,31,31,0,0,1,5.5.54,12.52,12.52,0,0,1,5.12,2.18,12,12,0,0,1,3.74,4.74,19.05,19.05,0,0,1,1.44,8.19Z" transform="translate(320.57 187.33)" fill="#fff"/>
      <path id="Path_17" data-name="Path 17" d="M97.86,26.66,97.7,60.37q-1.17.4-2.77.81T91.5,62a36.623,36.623,0,0,1-3.73.56A35.381,35.381,0,0,1,84,62.7a40,40,0,0,1-6.7-.58,13.89,13.89,0,0,1-5.63-2.25A11.42,11.42,0,0,1,67.83,55a21,21,0,0,1-1.39-8.52l.1-20a23.25,23.25,0,0,1,3-.46q1.47-.13,2.84-.12t2.8.15a21.05,21.05,0,0,1,2.94.49l-.09,19q0,4.1,1.34,5.61a5.36,5.36,0,0,0,4.16,1.52,17.21,17.21,0,0,0,1.78-.06,7.249,7.249,0,0,0,.89-.13l.1-25.88a23.3,23.3,0,0,1,3-.46Q90.75,26,92.11,26a27.029,27.029,0,0,1,2.8.15,21,21,0,0,1,2.95.51Z" transform="translate(320.57 187.33)" fill="#fff"/>
      <path id="Path_18" data-name="Path 18" d="M62.47,54.73q.1,1.16.09,2.26t-.11,2.29A16.45,16.45,0,0,1,62,61.84l-24.5-.11.24-35.36a23.3,23.3,0,0,1,3-.46q1.47-.13,2.84-.12t2.8.15a21.07,21.07,0,0,1,2.94.49l-.19,25.71L62,52.2a16.559,16.559,0,0,1,.47,2.53Z" transform="translate(320.57 187.33)" fill="#fff"/>
    </g>
  </g>
</svg>
